<svg id="Layer_1" data-name="Layer 1" xmlns="http://www.w3.org/2000/svg" width="450" height="32" viewBox="0 0 450 32">
  <title>aaosLogoWithTagMarch9Fixed</title>
  <g>
    <path d="M103.32495,2.10622l-.0248,6.51512h-1.28649l-.44813-2.79125A2.88478,2.88478,0,0,0,99.90864,3.563,7.92,7.92,0,0,0,96.327,2.847,4.498,4.498,0,0,0,92.7999,4.45431a5.56209,5.56209,0,0,0-1.40721,3.78505,4.02609,4.02609,0,0,0,.93593,2.71683A6.98577,6.98577,0,0,0,94.351,12.63128q1.079.573,3.9008,1.81233a28.19455,28.19455,0,0,1,3.74371,1.98926,9.17951,9.17951,0,0,1,2.525,2.46549,5.97887,5.97887,0,0,1,1.0434,3.51055,8.43992,8.43992,0,0,1-.74245,3.47252A8.903,8.903,0,0,1,102.70816,28.8a9.81672,9.81672,0,0,1-3.25756,1.97107,11.66968,11.66968,0,0,1-4.134.7127,26.8942,26.8942,0,0,1-5.03846-.42,14.42655,14.42655,0,0,1-3.26914-.95246V22.781h1.34106l.40347,2.85408a4.28666,4.28666,0,0,0,1.986,3.30716,9.95277,9.95277,0,0,0,4.88964.95577,6.207,6.207,0,0,0,3.35181-.87144,5.6288,5.6288,0,0,0,2.1265-2.30013,6.67611,6.67611,0,0,0,.716-3.02936A4.56906,4.56906,0,0,0,99.98305,19.955a24.36762,24.36762,0,0,0-5.642-3.03763,25.5989,25.5989,0,0,1-3.3915-1.69492A7.349,7.349,0,0,1,88.618,12.871a6.69538,6.69538,0,0,1-.9723-3.704,7.12941,7.12941,0,0,1,1.29144-4.253,8.09634,8.09634,0,0,1,3.3915-2.72345,10.87052,10.87052,0,0,1,4.44649-.92931c.7408,0,1.53783.04465,2.401.12567.85822.086,1.66019.19678,2.396.339.74245.14221,1.32451.26788,1.75279.38032" fill="#555759"/>
    <path d="M54.87168,29.50112a1.16706,1.16706,0,0,1-.97561-.63q-.2778-.54072-1.25672-3.37827L46.9163,8.73709c-.28772-.85656-.59363-1.75115-.926-2.68707q-.506-1.40885-.78876-2.26045c-.19016-.56883-.42993-1.31791-.711-2.239H41.84972L30.72277,27.454a11.68116,11.68116,0,0,1-.85159,1.64035.95068.95068,0,0,1-.84332.43655,1.0756,1.0756,0,0,1-.94585-.65978q-.28276-.54072-1.25672-3.37827l-5.723-16.75575Q20.6756,7.45225,20.17457,6.05q-.50351-1.40885-.7871-2.26045c-.19181-.56883-.42662-1.31791-.711-2.239H16.034L4.9087,27.454a9.09005,9.09005,0,0,1-.85655,1.64035,1.12518,1.12518,0,0,1-.7838.44812L1.714,29.73758V30.91h8.68131V29.74089L8.287,29.46309a5.628,5.628,0,0,1-.76561-.16867.697.697,0,0,1-.382-.2778,1.0254,1.0254,0,0,1-.12567-.56883,5.05669,5.05669,0,0,1,.382-1.42373l2.85408-6.83756H21.07908c.84,2.43573,1.45019,4.26955,1.85036,5.50974a11.1187,11.1187,0,0,1,.59529,2.34478,1.27183,1.27183,0,0,1-.30756.95577,2.12451,2.12451,0,0,1-1.15916.42332l-2.04383.301V30.91H36.211V29.74089l-2.10666-.2778a5.56978,5.56978,0,0,1-.76561-.16867.6952.6952,0,0,1-.38363-.2778,1.03979,1.03979,0,0,1-.12567-.56883,5.09432,5.09432,0,0,1,.38032-1.42373l2.85243-6.83756h10.831q1.26,3.65359,1.852,5.50974a11.16816,11.16816,0,0,1,.59694,2.34478,1.28532,1.28532,0,0,1-.30757.95577,2.14877,2.14877,0,0,1-1.16247.42332l-2.04052.301V30.91H56.59637V29.71113l-1.72468-.21M10.99223,18.17078,16.14148,5.36543q2.31915,6.43409,4.36215,12.80534Zm25.81572,0,5.1476-12.80534q2.32163,6.43409,4.3638,12.80534Z" fill="#555759"/>
    <path d="M56.06887,9.55726a14.62092,14.62092,0,0,1,23.73883,6.4622.09892.09892,0,0,0,.086.07111.10519.10519,0,0,0,.09756-.05457,13.85821,13.85821,0,0,0,.63-10.4093H80.618a2.21013,2.21013,0,0,0-.44811-.84332l-.21-.21A15.26747,15.26747,0,0,0,55.91509,9.44483a.09373.09373,0,0,0,.02811.11906.09181.09181,0,0,0,.12567-.00662" fill="#cf0a2c"/>
    <path d="M70.83536,31.41928a14.68928,14.68928,0,0,1-10.105-13.3196,14.52235,14.52235,0,0,1,3.833-10.4771.08907.08907,0,0,0,.01654-.10914.09681.09681,0,0,0-.09756-.05126A13.83112,13.83112,0,0,0,55.15279,12.122h.005a2.07584,2.07584,0,0,0-.506.80695l-.081.28772A15.2804,15.2804,0,0,0,70.81221,31.61109a.10059.10059,0,0,0,.09095-.09095.08916.08916,0,0,0-.0678-.10087" fill="#cf0a2c"/>
    <path d="M85.291,15.73505a15.26765,15.26765,0,0,0-2.73172-8.11247.10345.10345,0,0,0-.12237-.03142.09422.09422,0,0,0-.05622.10914,14.68024,14.68024,0,0,1-6.482,15.40642,14.52365,14.52365,0,0,1-10.9864,1.91816.10924.10924,0,0,0-.10418.043.09446.09446,0,0,0,.00331.10914,13.83907,13.83907,0,0,0,8.70115,5.75116l-.00331-.00331a2.09674,2.09674,0,0,0,.95577.03307l.28773-.07772A15.32283,15.32283,0,0,0,85.291,15.73505" fill="#cf0a2c"/>
    <path d="M121.607,1.56385q.14634.47128.24307.76231.09674.2902.26788.76892c.1141.31914.21828.6234.31584.91443L124.385,9.71931c.22324.64159.36379,1.02688.42662,1.14924a.40489.40489,0,0,0,.33568.21331l.58537.07441v.40678h-3.6693v-.40678l.69615-.10418a.725.725,0,0,0,.3952-.14386.43545.43545,0,0,0,.10583-.32741,3.88225,3.88225,0,0,0-.20339-.80364q-.20339-.635-.63-1.88344H118.733l-.97727,2.33817a1.76674,1.76674,0,0,0-.13062.48781.349.349,0,0,0,.043.19347.24006.24006,0,0,0,.13064.09756,1.89643,1.89643,0,0,0,.26293.05788l.721.09425v.40017h-2.97148v-.40017l.5308-.06449a.39645.39645,0,0,0,.27118-.15213,3.10724,3.10724,0,0,0,.291-.56222l3.80159-8.82021h.9012m-.86483,1.29145L118.986,7.22241h3.24432Q121.53337,5.04712,120.74212,2.8553Z" fill="#cf0a2c"/>
    <path d="M128.56688,5.49111l.0215,4.172q0,.6945.02315.98884a.65962.65962,0,0,0,.12236.39025.47425.47425,0,0,0,.29765.10418l.64655.05788v.35883h-2.85077v-.35883l.68954-.086a.3656.3656,0,0,0,.22654-.08433.41964.41964,0,0,0,.081-.21662q.01983-.16123.04961-.65978c.00992-.22158.03141-.90782.06614-2.05375.00331-.28111.01653-.759.03307-1.437.01489-.67466.0248-1.11121.0248-1.29806a.53627.53627,0,0,0-.03637-.253c-.02977-.05126-.10253-.08268-.21828-.09591l-.62505-.10252V4.56179h2.37123l2.07856,5.39894,2.13478-5.39894h2.46879v.35552l-.65481.07276a.40643.40643,0,0,0-.291.124.72042.72042,0,0,0-.10088.36379c-.01487.17528-.02148.501-.02148.98223V9.66144c0,.47127.00661.79041.02148.96239a.7729.7729,0,0,0,.09592.36048.335.335,0,0,0,.24472.12567l.74247.09426v.35883h-3.4345v-.35552l.67632-.081a.363.363,0,0,0,.35551-.2315,16.87962,16.87962,0,0,0,.10914-2.649c0-.83671-.01654-1.65358-.05126-2.444l-2.3481,5.81234h-.57214a61.14805,61.14805,0,0,0-2.37619-6.12322" fill="#cf0a2c"/>
    <path d="M140.52227,8.2559V11.0984l2.31336-.11079a.46908.46908,0,0,0,.33238-.129,2.21771,2.21771,0,0,0,.23315-.45143l.31252-.77222.40017.08764-.33568,1.84044h-5.58745v-.3456l.66144-.07772a.35319.35319,0,0,0,.34064-.24142,6.34357,6.34357,0,0,0,.08928-1.19884c.01984-.65813.02647-1.217.02647-1.67343q0-.759-.05788-2.05706a3.74769,3.74769,0,0,0-.09095-.80364c-.03472-.09756-.13229-.15213-.28772-.16536l-.68128-.081V4.56179H143.416V6.47h-.40016l-.1389-.77884a.82437.82437,0,0,0-.17363-.45474.67285.67285,0,0,0-.40677-.1141l-1.7743-.0711v2.74l1.11287-.02977c.248-.00662.40513-.048.47293-.13229a1.00783,1.00783,0,0,0,.15212-.47458l.08764-.549h.37866V9.39026h-.37866l-.081-.51757a.93561.93561,0,0,0-.15212-.46466.67611.67611,0,0,0-.47954-.12236l-1.11287-.02977" fill="#cf0a2c"/>
    <path d="M148.36522,9.65813c0,.37371.00331.6449.01157.81356a2.07727,2.07727,0,0,0,.04962.38363.32471.32471,0,0,0,.11575.19347.47458.47458,0,0,0,.22654.081l.62009.07441v.35883H146.032v-.35883l.65978-.081c.20339-.02149.31914-.10252.3489-.23811a19.17943,19.17943,0,0,0,.10914-2.80117c0-.77057-.03141-1.647-.0926-2.62093a.72424.72424,0,0,0-.07441-.35552.33732.33732,0,0,0-.26127-.12071L146.032,4.909V4.56179h3.24268a4.34546,4.34546,0,0,1,1.28317.17694,2.03171,2.03171,0,0,1,.91113.54237,1.25582,1.25582,0,0,1,.33238.87309,1.61322,1.61322,0,0,1-.49112,1.2005,2.55426,2.55426,0,0,1-1.27656.64985l2.17445,2.79952a1.21163,1.21163,0,0,0,.23482.24142.60476.60476,0,0,0,.24307.08764l.458.07111v.35883h-1.86028q-.382-.61513-.82349-1.24019c-.29269-.4167-.61016-.84332-.94585-1.27491-.33568-.43324-.6267-.78214-.86483-1.05a2.34069,2.34069,0,0,0,1.46342-.57876A1.63132,1.63132,0,0,0,150.53471,6.26a1.03466,1.03466,0,0,0-.458-.86813,1.92442,1.92442,0,0,0-1.179-.34064h-.53245V9.65813" fill="#cf0a2c"/>
    <path d="M154.39087,4.56179h3.39481v.35552l-.64655.07937a.38914.38914,0,0,0-.28773.13229.74719.74719,0,0,0-.10582.36875c-.01323.17693-.0215.49773-.0215.96239V9.66144c0,.37041.00165.63167.00826.78711a1.74775,1.74775,0,0,0,.0463.38859.35679.35679,0,0,0,.10253.20008.55411.55411,0,0,0,.20007.07276l.74742.09426v.35883h-3.4378v-.35883l.65482-.081a.36015.36015,0,0,0,.3489-.2315c.00992-.03307.02315-.14221.0463-.33071.02315-.18686.038-.468.05126-.83837.01323-.37537.01819-.85656.01819-1.44358q0-.945-.05787-2.31336a4.83509,4.83509,0,0,0-.08268-.80364c-.03307-.09756-.12567-.15213-.28111-.16536l-.69782-.07937V4.56179" fill="#cf0a2c"/>
    <path d="M165.59885,4.70069V6.63539h-.40842L164.987,5.721a.778.778,0,0,0-.30427-.501,2.97747,2.97747,0,0,0-2.71187.17528,2.41208,2.41208,0,0,0-.82679,1.11617,4.42178,4.42178,0,0,0-.26126,1.561,4.42282,4.42282,0,0,0,.14551,1.16578,3.04061,3.04061,0,0,0,.46467.98719,2.21054,2.21054,0,0,0,.80529.69781,2.47807,2.47807,0,0,0,1.15585.253,3.30128,3.30128,0,0,0,1.12609-.16205.96876.96876,0,0,0,.58868-.52915l.458-1.0864.37205.09425-.30757,1.83217a4.4452,4.4452,0,0,1-1.00372.296,7.17824,7.17824,0,0,1-1.23358.09756,4.67834,4.67834,0,0,1-1.96114-.36213,3.06345,3.06345,0,0,1-1.21373-.93262,3.34191,3.34191,0,0,1-.58537-1.174,4.71215,4.71215,0,0,1-.15544-1.17074,4.11379,4.11379,0,0,1,.35222-1.599,3.35309,3.35309,0,0,1,1.23688-1.44027,4.0129,4.0129,0,0,1,2.32659-.60852,9.85336,9.85336,0,0,1,1.15916.0711,5.239,5.239,0,0,1,.98554.19843" fill="#cf0a2c"/>
    <path d="M171.42773,4.50888q.09178.32.60355,1.728l1.41217,3.96695a6.08233,6.08233,0,0,0,.2993.74907.35.35,0,0,0,.2745.19347l.42828.05126v.36544h-3.07566v-.36544l.61016-.07441a.58764.58764,0,0,0,.291-.09591.29753.29753,0,0,0,.06449-.21662A9.50482,9.50482,0,0,0,171.77,9.05623h-2.59778l-.62505,1.4998a.92458.92458,0,0,0-.10418.35717c0,.08764.01654.14221.04961.16536a.68718.68718,0,0,0,.23482.05457l.6267.07111v.35883h-2.401v-.35883l.38529-.048a.3882.3882,0,0,0,.22654-.11906,1.54922,1.54922,0,0,0,.20339-.36875l2.75652-6.15959h.90285m-.8301,1.13766-1.19223,2.8425H171.608Q171.14911,7.14966,170.59763,5.64655Z" fill="#cf0a2c"/>
    <path d="M176.39343,5.16535a.74411.74411,0,0,0-.3489-.15544l-.61844-.10086V4.56179h2.33156L181.923,9.90948c-.01986-.31583-.03473-.72592-.04135-1.227s-.01653-1.03349-.02811-1.60232c-.01322-.56553-.02315-.93924-.03307-1.12113-.01984-.33237-.03473-.5556-.05127-.65812a.4297.4297,0,0,0-.081-.22324.36163.36163,0,0,0-.22324-.081L180.7159,4.909V4.56179h2.84415V4.909l-.65481.08764a.35454.35454,0,0,0-.24142.10418.8213.8213,0,0,0-.09757.39025c-.01489.20339-.02314.52419-.02314.95908l-.038,5.16414h-.80032a68.68825,68.68825,0,0,0-4.69122-6.0455l.03638,4.09427c0,.50434.00331.82679.00992.9723a.6341.6341,0,0,0,.08764.32741.41754.41754,0,0,0,.30592.14221l.68623.09922v.35883h-2.87227v-.35883l.68128-.086a.38611.38611,0,0,0,.22985-.08433.37948.37948,0,0,0,.08434-.21662c.01487-.10748.03141-.32741.05126-.65978q.05706-1.09385.05787-2.07525,0-2.21994.0215-2.91692" fill="#cf0a2c"/>
    <path d="M193.79573,1.56385c.09757.31418.17859.56884.24639.76231q.09674.2902.26788.76892c.11243.31914.21828.6234.31418.91443l1.94957,5.70982c.22322.64159.36543,1.02688.42992,1.14924a.39931.39931,0,0,0,.33238.21331l.587.07441v.40678h-3.66765v-.40678l.69617-.10418a.7422.7422,0,0,0,.3952-.14386.44193.44193,0,0,0,.10252-.32741,3.94894,3.94894,0,0,0-.20173-.80364q-.20339-.635-.63167-1.88344H190.9218l-.97561,2.33817a1.76721,1.76721,0,0,0-.13062.48781.349.349,0,0,0,.043.19347.23806.23806,0,0,0,.13229.09756,1.84054,1.84054,0,0,0,.26291.05788l.7193.09425v.40017h-2.97148v-.40017l.5341-.06449a.4001.4001,0,0,0,.26788-.15213,3.22193,3.22193,0,0,0,.291-.56222l3.80324-8.82021h.89789m-.86151,1.29145-1.75776,4.36711h3.246Q193.72547,5.04712,192.93422,2.8553Z" fill="#cf0a2c"/>
    <path d="M204.78379,4.70069V6.63539H204.377l-.20339-.91443a.78458.78458,0,0,0-.30427-.501,2.97747,2.97747,0,0,0-2.71187.17528,2.41518,2.41518,0,0,0-.82843,1.11617,4.42177,4.42177,0,0,0-.26127,1.561,4.49276,4.49276,0,0,0,.14551,1.16578,3.07526,3.07526,0,0,0,.46467.98719,2.19424,2.19424,0,0,0,.8086.69781,2.46171,2.46171,0,0,0,1.1542.253,3.2946,3.2946,0,0,0,1.12609-.16205.9643.9643,0,0,0,.58868-.52915l.45639-1.0864.372.09425-.30591,1.83217a4.45931,4.45931,0,0,1-1.00538.296,7.13041,7.13041,0,0,1-1.23191.09756,4.68651,4.68651,0,0,1-1.9628-.36213,3.06376,3.06376,0,0,1-1.21374-.93262,3.337,3.337,0,0,1-.58371-1.174,4.63543,4.63543,0,0,1-.15543-1.17074,4.08749,4.08749,0,0,1,.35387-1.599,3.32655,3.32655,0,0,1,1.23522-1.44027,4.00935,4.00935,0,0,1,2.32659-.60852,9.80459,9.80459,0,0,1,1.1575.0711,5.18365,5.18365,0,0,1,.98555.19843" fill="#cf0a2c"/>
    <path d="M210.61266,4.50888q.09428.32.60357,1.728l1.41217,3.96695a5.99925,5.99925,0,0,0,.30094.74907.35509.35509,0,0,0,.2745.19347l.42828.05126v.36544h-3.07733v-.36544l.61018-.07441a.56176.56176,0,0,0,.291-.09591.29036.29036,0,0,0,.06613-.21662,9.43528,9.43528,0,0,0-.56718-1.75445h-2.59611l-.62673,1.4998a.9089.9089,0,0,0-.10085.35717c0,.08764.01322.14221.0463.16536a.687.687,0,0,0,.23481.05457l.6267.07111v.35883h-2.39935v-.35883l.38529-.048a.37893.37893,0,0,0,.22489-.11906,1.54832,1.54832,0,0,0,.20339-.36875l2.75817-6.15959h.9012m-.8301,1.13766L208.592,8.48905h2.20257Q210.33819,7.14966,209.78256,5.64655Z" fill="#cf0a2c"/>
    <path d="M218.19268,11.56306h-3.35841v-.36213l.65481-.0711a.3611.3611,0,0,0,.3489-.24142,2.21147,2.21147,0,0,0,.05127-.32907c.01817-.1852.03305-.463.0463-.83671q.01983-.563.01983-1.44358,0-.945-.05788-2.31667a4.75338,4.75338,0,0,0-.08432-.80364c-.03308-.09756-.12568-.15213-.28111-.16536l-.69781-.07937V4.56179h3.24267a5.85942,5.85942,0,0,1,2.09012.35222,3.29937,3.29937,0,0,1,1.50146,1.098,3,3,0,0,1,.56552,1.85366,3.82394,3.82394,0,0,1-.26291,1.39728,3.40468,3.40468,0,0,1-.77388,1.19223,3.60806,3.60806,0,0,1-1.27.81025,4.74234,4.74234,0,0,1-1.7346.29765m-1.02357-.65151a3.23453,3.23453,0,0,0,1.07815.1604,2.46533,2.46533,0,0,0,1.37081-.38694,2.56012,2.56012,0,0,0,.93428-1.12113,4.1045,4.1045,0,0,0,.33732-1.72138,2.94849,2.94849,0,0,0-.23645-1.21373,2.53883,2.53883,0,0,0-.6482-.8797,2.71935,2.71935,0,0,0-.931-.52584,3.3852,3.3852,0,0,0-1.08807-.172h-.81688Z" fill="#cf0a2c"/>
    <path d="M226.1861,8.2559V11.0984l2.31172-.11079a.477.477,0,0,0,.334-.129,2.15233,2.15233,0,0,0,.2315-.45143l.31418-.77222.39851.08764-.334,1.84044H223.8529v-.3456l.65978-.07772a.35379.35379,0,0,0,.34229-.24142,6.43442,6.43442,0,0,0,.09093-1.19884c.01655-.65813.02647-1.217.02647-1.67343q0-.759-.05788-2.05706a3.99725,3.99725,0,0,0-.09093-.80364c-.03638-.09756-.13229-.15213-.28774-.16536l-.68292-.081V4.56179h5.22533V6.47h-.39851l-.13893-.77884a.8645.8645,0,0,0-.17362-.45474.68273.68273,0,0,0-.40842-.1141l-1.77265-.0711v2.74l1.1112-.02977c.24805-.00662.40514-.048.47294-.13229a1.04379,1.04379,0,0,0,.15379-.47458l.08763-.549h.377V9.39026h-.377l-.081-.51757a.97073.97073,0,0,0-.15215-.46466.68418.68418,0,0,0-.48119-.12236l-1.1112-.02977" fill="#cf0a2c"/>
    <path d="M233.15594,5.49111l.0215,4.172q0,.6945.02316.98884a.65943.65943,0,0,0,.12237.39025.47418.47418,0,0,0,.29763.10418l.64656.05788v.35883h-2.85077v-.35883l.68953-.086a.36568.36568,0,0,0,.22656-.08433.41987.41987,0,0,0,.081-.21662q.01983-.16123.04961-.65978c.00992-.22158.03141-.90782.06613-2.05375.00331-.28111.01655-.759.03308-1.437.01489-.67466.0248-1.11121.0248-1.29806a.53625.53625,0,0,0-.03638-.253c-.02975-.05126-.10252-.08268-.21825-.09591l-.62506-.10252V4.56179h2.37125l2.07689,5.39894L238.292,4.56179h2.46882v.35552l-.65484.07276a.40648.40648,0,0,0-.291.124.72042.72042,0,0,0-.10088.36379c-.01489.17528-.0215.501-.0215.98223V9.66144c0,.47127.00661.79041.0215.96239a.79659.79659,0,0,0,.09427.36048.34208.34208,0,0,0,.24639.12567l.74244.09426v.35883h-3.43448v-.35552l.67631-.081a.363.363,0,0,0,.35554-.2315,16.88214,16.88214,0,0,0,.10913-2.649c0-.83671-.01653-1.65358-.05127-2.444l-2.34808,5.81234h-.57213a61.15118,61.15118,0,0,0-2.37622-6.12322" fill="#cf0a2c"/>
    <path d="M246.21428,8.64284V9.70609c0,.36875.00167.63332.005.79207a1.97674,1.97674,0,0,0,.04961.39025.35769.35769,0,0,0,.09921.20008.59028.59028,0,0,0,.20009.07441l.77883.08764v.31253h-3.50392v-.31253l.6912-.09756a.34924.34924,0,0,0,.34229-.25135,14.1649,14.1649,0,0,0,.12235-2.25879q-.76145-1.31708-1.85367-2.98306A3.45281,3.45281,0,0,0,242.717,5.081a.53987.53987,0,0,0-.29766-.11244l-.3919-.05126V4.56179h3.19143v.35552l-.50269.06449a1.24879,1.24879,0,0,0-.32741.0678.14944.14944,0,0,0-.08765.15709.69958.69958,0,0,0,.1389.36544l1.53948,2.50352,1.62217-2.58455a.77482.77482,0,0,0,.15212-.33568.11547.11547,0,0,0-.05125-.10583A.28727.28727,0,0,0,247.55368,5c-.06447-.00661-.119-.01323-.1637-.01819l-.53741-.06449V4.56179h2.34808v.35552l-.32741.05126a.40712.40712,0,0,0-.21164.081,1.41723,1.41723,0,0,0-.253.3026l-2.19432,3.29063" fill="#cf0a2c"/>
    <path d="M257.85882,4.43116a4.76057,4.76057,0,0,1,1.58081.24969,3.27443,3.27443,0,0,1,1.19058.716,3.01,3.01,0,0,1,.74577,1.14428A4.26648,4.26648,0,0,1,261.6356,8.079a4.21433,4.21433,0,0,1-.25961,1.52956,3.01,3.01,0,0,1-.74577,1.14428,3.26829,3.26829,0,0,1-1.19058.71269,4.67623,4.67623,0,0,1-1.58081.253,4.411,4.411,0,0,1-2.01076-.43324,2.97535,2.97535,0,0,1-1.30468-1.26,4.00556,4.00556,0,0,1-.45308-1.94626,4.25549,4.25549,0,0,1,.26127-1.51633,3.19444,3.19444,0,0,1,.75072-1.15916,3.28373,3.28373,0,0,1,1.19389-.72262,4.67906,4.67906,0,0,1,1.56265-.24969m0,6.79622a2.19019,2.19019,0,0,0,.99049-.22323,2.21471,2.21471,0,0,0,.77058-.63332,2.948,2.948,0,0,0,.49772-.98719,4.57143,4.57143,0,0,0,.17362-1.308,4.64053,4.64053,0,0,0-.17362-1.32782,2.902,2.902,0,0,0-.501-.99215,2.176,2.176,0,0,0-1.75776-.8334,2.16861,2.16861,0,0,0-1.26168.37867,2.50472,2.50472,0,0,0-.85656,1.09467,4.26165,4.26165,0,0,0-.30591,1.68,4.22577,4.22577,0,0,0,.30591,1.66516,2.50618,2.50618,0,0,0,.85656,1.10129A2.1383,2.1383,0,0,0,257.85882,11.22739Z" fill="#cf0a2c"/>
    <path d="M265.57443,8.2559V9.68625c0,.35883,0,.61678.00661.77222a1.66935,1.66935,0,0,0,.0463.38694.3464.3464,0,0,0,.10582.20008.39411.39411,0,0,0,.19678.06449l.9012.09426v.35883h-3.59158v-.35883l.6697-.081a.3582.3582,0,0,0,.34229-.23811,16.2446,16.2446,0,0,0,.10749-2.58124q0-.97727-.05788-2.34808a4.89341,4.89341,0,0,0-.08268-.807c-.03141-.09756-.12568-.15213-.28111-.16536l-.6912-.07607v-.3456h5.103V6.46341H267.949l-.129-.77884a.91776.91776,0,0,0-.17859-.47127.63631.63631,0,0,0-.41176-.11575l-1.65522-.0711V7.79124l1.05332-.02977c.23317-.00662.38032-.048.44317-.13229a1.13309,1.13309,0,0,0,.14551-.47788l.086-.54569h.40842V9.39521h-.40842l-.07277-.49938a1.86894,1.86894,0,0,0-.07771-.37537.31461.31461,0,0,0-.16867-.17032,1.00308,1.00308,0,0,0-.3919-.06449l-1.01694-.02977" fill="#cf0a2c"/>
    <path d="M278.21275,1.43487a5.671,5.671,0,0,1,2.06367.3489,4.11177,4.11177,0,0,1,1.53784,1.02357A4.45059,4.45059,0,0,1,282.78,4.43778a6.62822,6.62822,0,0,1,.329,2.16123,6.62827,6.62827,0,0,1-.329,2.16123,4.46523,4.46523,0,0,1-.96569,1.637,4.12145,4.12145,0,0,1-1.55768,1.02026,6.10609,6.10609,0,0,1-4.08766,0,4.12145,4.12145,0,0,1-1.55768-1.02026,4.51114,4.51114,0,0,1-.96569-1.637,6.67239,6.67239,0,0,1-.32907-2.16123,6.67233,6.67233,0,0,1,.32907-2.16123,4.457,4.457,0,0,1,.969-1.63043A4.11063,4.11063,0,0,1,276.159,1.78377a5.66613,5.66613,0,0,1,2.05373-.3489m0,9.79251a2.99559,2.99559,0,0,0,1.41714-.33237,3.22289,3.22289,0,0,0,1.09962-.94089,4.51243,4.51243,0,0,0,.70608-1.475,6.69444,6.69444,0,0,0,.253-1.88012,6.63164,6.63164,0,0,0-.2563-1.8917,4.51253,4.51253,0,0,0-.69947-1.46673,3.20015,3.20015,0,0,0-1.09632-.92766,3.17313,3.17313,0,0,0-2.84086,0,3.26522,3.26522,0,0,0-1.10459.94089,4.4591,4.4591,0,0,0-.70442,1.45681,6.73674,6.73674,0,0,0-.24805,1.88839,6.678,6.678,0,0,0,.24805,1.87681,4.5291,4.5291,0,0,0,.711,1.46838,3.23047,3.23047,0,0,0,1.10459.95081A2.99243,2.99243,0,0,0,278.21275,11.22739Z" fill="#cf0a2c"/>
    <path d="M286.727,9.65813q0,.56057.01489.81356a2.13312,2.13312,0,0,0,.0463.38363.33288.33288,0,0,0,.11576.19347.47448.47448,0,0,0,.22653.081l.62009.07441v.35883h-3.35677v-.35883l.65978-.081c.20339-.02149.31913-.10252.3489-.23811a19.18225,19.18225,0,0,0,.10913-2.80117c0-.77057-.03141-1.647-.09424-2.62093a.7092.7092,0,0,0-.07277-.35552.3412.3412,0,0,0-.26291-.12071l-.68789-.07771V4.56179h3.24267a4.34555,4.34555,0,0,1,1.28318.17694,2.01681,2.01681,0,0,1,.90948.54237,1.24252,1.24252,0,0,1,.334.87309,1.61325,1.61325,0,0,1-.49111,1.2005,2.56117,2.56117,0,0,1-1.27657.64985L290.57,10.80407a1.25893,1.25893,0,0,0,.23481.24142.61147.61147,0,0,0,.24639.08764l.45472.07111v.35883h-1.86028q-.382-.61513-.82349-1.24019c-.29433-.4167-.60685-.84332-.94583-1.27491-.33568-.43324-.6267-.78214-.86648-1.05a2.34688,2.34688,0,0,0,1.46672-.57876,1.63023,1.63023,0,0,0,.42-1.15916,1.03466,1.03466,0,0,0-.458-.86813,1.92438,1.92438,0,0,0-1.179-.34064H286.727V9.65813" fill="#cf0a2c"/>
    <path d="M295.954,5.10417V9.66144c0,.47127.005.79372.01819.96569a.82884.82884,0,0,0,.09757.36379.30046.30046,0,0,0,.24472.11906l.96569.09426v.35883h-3.88757v-.35883l.888-.09922a.53547.53547,0,0,0,.23481-.07772.35847.35847,0,0,0,.10749-.172,2.50078,2.50078,0,0,0,.04463-.34891c.01986-.19016.03308-.46135.04961-.82017.01158-.35552.0215-.8301.0215-1.41382q0-2.05375-.08763-3.16826l-1.65028.048c-.1637.00661-.27119.04465-.31585.11575a1.78679,1.78679,0,0,0-.14882.47458l-.1389.68789-.4134-.02811.1389-1.84044h6.40763l.11576,1.84044-.40678.02811-.12237-.68789a1.63695,1.63695,0,0,0-.13229-.46465c-.04794-.07772-.15873-.11906-.33235-.12567l-1.69824-.048" fill="#cf0a2c"/>
    <path d="M302.21285,7.76478h3.48739c-.00992-.60355-.02811-1.20215-.05786-1.79579-.01986-.34229-.03638-.56552-.05127-.67136a.41184.41184,0,0,0-.07771-.21993.42459.42459,0,0,0-.22656-.081l-.70772-.07937V4.56179h3.4014v.35552l-.65315.05126a.61467.61467,0,0,0-.23811.05788.256.256,0,0,0-.11576.18355,1.824,1.824,0,0,0-.04961.39355c-.00661.16867-.00992.45308-.00992.85656V9.66144c0,.37041,0,.63167.00661.78711a1.55552,1.55552,0,0,0,.04961.38859.33772.33772,0,0,0,.09921.20008.56683.56683,0,0,0,.20009.07276l.74908.09426v.35883h-3.43945v-.35552l.65978-.081a.35555.35555,0,0,0,.3456-.2315,13.872,13.872,0,0,0,.11574-2.5614h-3.48739V9.66806c0,.3671,0,.62836.00661.7838a1.72873,1.72873,0,0,0,.04466.38694.3805.3805,0,0,0,.10252.20174.55094.55094,0,0,0,.19842.06945l.75238.09756v.35552H299.878v-.35883l.65481-.081a.36177.36177,0,0,0,.3489-.2315,2.586,2.586,0,0,0,.04466-.33071c.02314-.18686.03969-.468.05291-.83837q.01737-.563.01819-1.44358,0-.945-.05788-2.31336a4.40429,4.40429,0,0,0-.08432-.80364c-.03141-.09756-.12568-.15213-.27947-.16536l-.69781-.07937V4.56179h3.39315v.35552l-.6482.05126a.63291.63291,0,0,0-.23978.05788.28211.28211,0,0,0-.11243.18685,1.811,1.811,0,0,0-.048.39355c-.00661.16867-.00992.45308-.00992.85656V7.76478" fill="#cf0a2c"/>
    <path d="M313.00246,4.43116a4.74364,4.74364,0,0,1,1.57917.24969,3.28183,3.28183,0,0,1,1.19225.716,3.02954,3.02954,0,0,1,.74575,1.14428,4.30276,4.30276,0,0,1,.258,1.53783,4.25011,4.25011,0,0,1-.258,1.52956,3.0296,3.0296,0,0,1-.74575,1.14428,3.2757,3.2757,0,0,1-1.19225.71269,4.65966,4.65966,0,0,1-1.57917.253,4.41811,4.41811,0,0,1-2.0124-.43324,2.99271,2.99271,0,0,1-1.30468-1.26A4.02359,4.02359,0,0,1,309.234,8.079a4.25549,4.25549,0,0,1,.26125-1.51633,3.21266,3.21266,0,0,1,.74908-1.15916,3.29085,3.29085,0,0,1,1.19555-.72262,4.67191,4.67191,0,0,1,1.56262-.24969m0,6.79622a2.17826,2.17826,0,0,0,.98885-.22323,2.21985,2.21985,0,0,0,.77222-.63332,2.9764,2.9764,0,0,0,.49608-.98719,4.5117,4.5117,0,0,0,.17528-1.308,4.5801,4.5801,0,0,0-.17528-1.32782,2.89978,2.89978,0,0,0-.49939-.99215,2.17592,2.17592,0,0,0-1.75776-.8334,2.17376,2.17376,0,0,0-1.26332.37867,2.50171,2.50171,0,0,0-.8549,1.09467,4.261,4.261,0,0,0-.30757,1.68,4.2253,4.2253,0,0,0,.30757,1.66516,2.50322,2.50322,0,0,0,.8549,1.10129A2.14335,2.14335,0,0,0,313.00246,11.22739Z" fill="#cf0a2c"/>
    <path d="M320.69825,7.88715c1.24019-.09591,1.86359-.6234,1.86359-1.57586a1.12159,1.12159,0,0,0-.22158-.6912,1.353,1.353,0,0,0-.58868-.44481,1.96785,1.96785,0,0,0-.7656-.14882h-.62009v4.635c0,.43489.00331.73916.01653.90947a.8306.8306,0,0,0,.09427.37206.32352.32352,0,0,0,.23811.1389l.93758.12237v.35883H318.031v-.35883l.66806-.086a.34679.34679,0,0,0,.33732-.23977,15.13449,15.13449,0,0,0,.11576-2.60274q0-1.13353-.05788-2.32494a3.86061,3.86061,0,0,0-.08432-.79868.2904.2904,0,0,0-.2745-.16205l-.69783-.081V4.56179h3.34521a3.23129,3.23129,0,0,1,1.723.44482,1.40458,1.40458,0,0,1,.72261,1.25011,1.57428,1.57428,0,0,1-.37865,1.01364,2.61633,2.61633,0,0,1-1.0616.74907,4.38083,4.38083,0,0,1-1.52129.31418l-.16867-.44647" fill="#cf0a2c"/>
    <path d="M328.48,4.50888q.09674.32.60357,1.728l1.4105,3.96695a5.83877,5.83877,0,0,0,.30427.74907.34744.34744,0,0,0,.27119.19347l.42992.05126v.36544h-3.079v-.36544l.61348-.07441a.58758.58758,0,0,0,.291-.09591.29753.29753,0,0,0,.06449-.21662,9.58223,9.58223,0,0,0-.56718-1.75445h-2.59778l-.6267,1.4998a.90138.90138,0,0,0-.09921.35717c0,.08764.01653.14221.04794.16536a.67757.67757,0,0,0,.23647.05457l.6234.07111v.35883h-2.401v-.35883l.38859-.048a.3893.3893,0,0,0,.22322-.11906,1.54832,1.54832,0,0,0,.20339-.36875l2.75817-6.15959h.9012m-.82679,1.13766-1.19553,2.8425h2.20588Q328.20219,7.14966,327.6532,5.64655Z" fill="#cf0a2c"/>
    <path d="M334.51558,8.2559V11.0984l2.30839-.11079a.48629.48629,0,0,0,.33732-.129,2.15233,2.15233,0,0,0,.2315-.45143l.31088-.77222.40017.08764-.33238,1.84044h-5.59076v-.3456l.66142-.07772a.35538.35538,0,0,0,.34229-.24142,6.595,6.595,0,0,0,.091-1.19884c.01653-.65813.02644-1.217.02644-1.67343q0-.759-.05952-2.05706a4.05218,4.05218,0,0,0-.08929-.80364c-.03969-.09756-.13229-.15213-.28772-.16536l-.68459-.081V4.56179H337.406V6.47h-.40017l-.13559-.77884a.89155.89155,0,0,0-.17528-.45474.689.689,0,0,0-.40678-.1141l-1.77263-.0711v2.74l1.1112-.02977c.24472-.00662.40348-.048.47128-.13229a1.00783,1.00783,0,0,0,.15212-.47458l.086-.549h.37868V9.39026h-.37868l-.07607-.51757a.98306.98306,0,0,0-.15543-.46466.674.674,0,0,0-.47789-.12236l-1.1112-.02977" fill="#cf0a2c"/>
    <path d="M342.60491,11.56306h-3.35843v-.36213l.65648-.0711a.36433.36433,0,0,0,.3489-.24142,2.74786,2.74786,0,0,0,.048-.32907c.01983-.1852.03472-.463.04794-.83671q.01983-.563.01986-1.44358,0-.945-.05788-2.31667a4.57243,4.57243,0,0,0-.08435-.80364c-.03305-.09756-.12565-.15213-.28111-.16536l-.69781-.07937V4.56179h3.24267a5.85956,5.85956,0,0,1,2.09014.35222,3.29054,3.29054,0,0,1,1.50144,1.098,2.98949,2.98949,0,0,1,.56554,1.85366,3.85716,3.85716,0,0,1-.26127,1.39728,3.43238,3.43238,0,0,1-.77552,1.19223,3.60829,3.60829,0,0,1-1.27.81025,4.73624,4.73624,0,0,1-1.7346.29765m-1.02357-.65151a3.24464,3.24464,0,0,0,1.07979.1604,2.46378,2.46378,0,0,0,1.36917-.38694,2.546,2.546,0,0,0,.93261-1.12113,4.07855,4.07855,0,0,0,.339-1.72138,2.94875,2.94875,0,0,0-.23481-1.21373,2.58537,2.58537,0,0,0-.64987-.8797,2.712,2.712,0,0,0-.92931-.52584,3.40245,3.40245,0,0,0-1.0897-.172h-.81688Z" fill="#cf0a2c"/>
    <path d="M347.83187,4.56179H351.225v.35552l-.6482.07937a.37828.37828,0,0,0-.28441.13229.682.682,0,0,0-.10749.36875c-.01489.17693-.0215.49773-.0215.96239V9.66144c0,.37041.00331.63167.00661.78711a1.95446,1.95446,0,0,0,.048.38859.34655.34655,0,0,0,.10252.20008.54369.54369,0,0,0,.19842.07276l.74908.09426v.35883h-3.43615v-.35883l.65151-.081a.35529.35529,0,0,0,.3489-.2315,3.00913,3.00913,0,0,0,.048-.33071c.02314-.18686.03969-.468.05291-.83837q.01487-.563.01489-1.44358,0-.945-.05788-2.31336a4.10563,4.10563,0,0,0-.08432-.80364c-.02811-.09756-.12237-.15213-.27616-.16536l-.69781-.07937V4.56179" fill="#cf0a2c"/>
    <path d="M358.52394,4.70069V6.63539h-.40678l-.20339-.91443a.78651.78651,0,0,0-.30591-.501,2.97429,2.97429,0,0,0-2.71023.17528,2.41208,2.41208,0,0,0-.82679,1.11617,4.42178,4.42178,0,0,0-.26125,1.561,4.42229,4.42229,0,0,0,.14551,1.16578,3.04056,3.04056,0,0,0,.46464.98719,2.21905,2.21905,0,0,0,.80365.69781,2.48975,2.48975,0,0,0,1.1575.253,3.30786,3.30786,0,0,0,1.12609-.16205.97319.97319,0,0,0,.58868-.52915l.458-1.0864.37207.09425-.30757,1.83217a4.47049,4.47049,0,0,1-1.00372.296,7.178,7.178,0,0,1-1.23358.09756,4.67326,4.67326,0,0,1-1.96116-.36213,3.05189,3.05189,0,0,1-1.21372-.93262,3.34213,3.34213,0,0,1-.58537-1.174,4.71212,4.71212,0,0,1-.15543-1.17074,4.11376,4.11376,0,0,1,.35221-1.599,3.35326,3.35326,0,0,1,1.23688-1.44027,4.00935,4.00935,0,0,1,2.32659-.60852,9.85373,9.85373,0,0,1,1.15917.0711,5.19067,5.19067,0,0,1,.98388.19843" fill="#cf0a2c"/>
    <path d="M369.03742,1.72259,369.0275,3.95h-.44317l-.15379-.95246a.98917.98917,0,0,0-.56221-.77719,2.69122,2.69122,0,0,0-1.21538-.24308,1.52618,1.52618,0,0,0-1.19719.549,1.92091,1.92091,0,0,0-.47789,1.29476,1.375,1.375,0,0,0,.31913.92766,2.48486,2.48486,0,0,0,.68459.57545c.24639.129.68459.33568,1.32454.61678a10.33383,10.33383,0,0,1,1.28152.68128,3.20065,3.20065,0,0,1,.86648.84167,2.06282,2.06282,0,0,1,.35551,1.20216,2.85453,2.85453,0,0,1-.2563,1.18892,3.03825,3.03825,0,0,1-.7193.99711,3.36169,3.36169,0,0,1-1.11451.67135,3.98948,3.98948,0,0,1-1.41217.24638,8.94209,8.94209,0,0,1-1.72138-.14551,4.9264,4.9264,0,0,1-1.11617-.32576V8.79166h.458l.13893.97561a1.47081,1.47081,0,0,0,.67464,1.131,3.36125,3.36125,0,0,0,1.6668.32907,2.10619,2.10619,0,0,0,1.14264-.301,1.94919,1.94919,0,0,0,.72427-.7871,2.282,2.282,0,0,0,.24142-1.03349,1.56336,1.56336,0,0,0-.6234-1.27987,8.33734,8.33734,0,0,0-1.91486-1.04011,8.67848,8.67848,0,0,1-1.15917-.5771,2.54911,2.54911,0,0,1-.80032-.80529,2.28586,2.28586,0,0,1-.33238-1.2683,2.42679,2.42679,0,0,1,.4415-1.4535,2.74018,2.74018,0,0,1,1.15586-.931,3.68431,3.68431,0,0,1,1.518-.31584c.253,0,.52419.01323.81688.04134.29433.02976.56882.0678.82182.1174.25136.048.45144.08929.597.129" fill="#cf0a2c"/>
    <path d="M377.06886,9.59861c.01986-.35717.02977-.87144.02977-1.53948q0-1.00455-.05788-2.09674c-.01983-.33237-.03638-.5556-.05291-.66143a.40518.40518,0,0,0-.07607-.21993.38382.38382,0,0,0-.22653-.08434l-.70775-.07937V4.56179h2.86236v.35552l-.57543.07276a.41158.41158,0,0,0-.29435.12071.659.659,0,0,0-.09921.339q-.01983.2406-.04961,1.01364l-.08268,2.9996a2.3223,2.3223,0,0,1-.63,1.60894,2.68959,2.68959,0,0,1-2.019.64655q-3.1575,0-3.15832-1.91815c.00331-.23977.00661-.46962.00992-.6912.00331-.22323.00331-.61182.00331-1.16081,0-.54237-.02314-1.20381-.06449-1.98264-.01983-.339-.03638-.56222-.05291-.66805a.37336.37336,0,0,0-.07938-.21993.42272.42272,0,0,0-.22322-.081l-.6912-.07937V4.56179h3.34188v.35552l-.62009.06449a.43214.43214,0,0,0-.28772.11575.6839.6839,0,0,0-.10252.36214q-.01987.2654-.01986.9971V9.59365a1.40215,1.40215,0,0,0,.23317.82017,1.46513,1.46513,0,0,0,.68128.5093,2.89674,2.89674,0,0,0,1.07151.17528q1.86524,0,1.938-1.4998" fill="#cf0a2c"/>
    <path d="M382.0726,9.65813c0,.37371.00661.6449.01489.81356a2.13079,2.13079,0,0,0,.0463.38363.333.333,0,0,0,.11574.19347.47468.47468,0,0,0,.22656.081l.62009.07441v.35883H379.741v-.35883l.65814-.081c.20339-.02149.31913-.10252.3489-.23811a19.18227,19.18227,0,0,0,.10913-2.80117c0-.77057-.03141-1.647-.0926-2.62093a.72438.72438,0,0,0-.07441-.35552.33732.33732,0,0,0-.26127-.12071L379.741,4.909V4.56179h3.241a4.3378,4.3378,0,0,1,1.28318.17694,2.03166,2.03166,0,0,1,.91112.54237,1.24839,1.24839,0,0,1,.33238.87309,1.61325,1.61325,0,0,1-.49111,1.2005,2.5543,2.5543,0,0,1-1.27657.64985l2.17446,2.79952a1.30978,1.30978,0,0,0,.23481.24142.62066.62066,0,0,0,.24639.08764l.45473.07111v.35883h-1.86028q-.382-.61513-.82349-1.24019c-.29269-.4167-.60687-.84332-.94583-1.27491-.33568-.43324-.62673-.78214-.86484-1.05a2.3459,2.3459,0,0,0,1.46508-.57876,1.63023,1.63023,0,0,0,.42-1.15916,1.03466,1.03466,0,0,0-.458-.86813,1.92438,1.92438,0,0,0-1.179-.34064h-.53246V9.65813" fill="#cf0a2c"/>
    <path d="M392.45876,11.02069c-.00331-.10914-.00331-.26127,0-.44978a4.38855,4.38855,0,0,0-.01325-.51923c-.01983-.32906-.03472-.53907-.04463-.6267a.42655.42655,0,0,0-.07771-.21331.31565.31565,0,0,0-.21-.09921l-.82679-.081V8.6726h3.17815v.35883l-.46134.06449c-.162.01984-.253.0678-.2778.14552a3.5325,3.5325,0,0,0-.04961.6267l-.05127,1.52957a8.19775,8.19775,0,0,1-2.44563.3208,4.81738,4.81738,0,0,1-1.99257-.36213,3.01268,3.01268,0,0,1-1.21041-.91774,3.48861,3.48861,0,0,1-.58207-1.17569,4.63157,4.63157,0,0,1-.1637-1.184,4.03828,4.03828,0,0,1,.19015-1.17239,3.52935,3.52935,0,0,1,.63665-1.18893A3.2394,3.2394,0,0,1,389.28719,4.79a4.52661,4.52661,0,0,1,1.89169-.35883,9.809,9.809,0,0,1,2.30012.23977V6.58578h-.42662L392.849,5.711a.72749.72749,0,0,0-.34229-.53245,2.8883,2.8883,0,0,0-1.37578-.2563,2.31513,2.31513,0,0,0-1.44688.44977,2.67134,2.67134,0,0,0-.878,1.16577,4.20653,4.20653,0,0,0-.28444,1.53783,4.0295,4.0295,0,0,0,.29435,1.5428,2.655,2.655,0,0,0,.89128,1.16247,2.39769,2.39769,0,0,0,1.47169.44647,2.71825,2.71825,0,0,0,1.27988-.2067" fill="#cf0a2c"/>
    <path d="M397.59643,8.2559V11.0984l2.31334-.11079a.47247.47247,0,0,0,.3324-.129,2.21654,2.21654,0,0,0,.23314-.45143l.31252-.77222.40017.08764-.33568,1.84044h-5.58745v-.3456l.65981-.07772a.3554.3554,0,0,0,.34229-.24142,6.3487,6.3487,0,0,0,.08927-1.19884c.01983-.65813.02644-1.217.02644-1.67343q0-.759-.05788-2.05706a3.74538,3.74538,0,0,0-.09093-.80364c-.03472-.09756-.13226-.15213-.28769-.16536l-.68131-.081V4.56179h5.22533V6.47H400.09l-.13888-.77884a.82455.82455,0,0,0-.17364-.45474.67286.67286,0,0,0-.40678-.1141l-1.77429-.0711v2.74l1.1112-.02977c.24969-.00662.40678-.048.47461-.13229a1.02729,1.02729,0,0,0,.1521-.47458l.08765-.549h.377V9.39026h-.377l-.081-.51757a.95289.95289,0,0,0-.1521-.46466.68132.68132,0,0,0-.48122-.12236l-1.1112-.02977" fill="#cf0a2c"/>
    <path d="M406.00654,4.43116a4.70985,4.70985,0,0,1,1.57587.24969,3.30969,3.30969,0,0,1,1.19553.716,3.11023,3.11023,0,0,1,.7458,1.14428,4.30389,4.30389,0,0,1,.25792,1.53783,4.25122,4.25122,0,0,1-.25792,1.52956,3.1103,3.1103,0,0,1-.7458,1.14428,3.3035,3.3035,0,0,1-1.19553.71269,4.62659,4.62659,0,0,1-1.57587.253,4.40857,4.40857,0,0,1-2.01243-.43324,2.983,2.983,0,0,1-1.308-1.26A4.02284,4.02284,0,0,1,402.238,8.079a4.25494,4.25494,0,0,1,.26125-1.51633,3.17013,3.17013,0,0,1,.74908-1.15916,3.263,3.263,0,0,1,1.19225-.72262,4.69885,4.69885,0,0,1,1.56593-.24969m0,6.79622a2.19793,2.19793,0,0,0,.98883-.22323,2.23505,2.23505,0,0,0,.77224-.63332,2.97462,2.97462,0,0,0,.49444-.98719,4.45448,4.45448,0,0,0,.17692-1.308,4.52221,4.52221,0,0,0-.17692-1.32782,2.8451,2.8451,0,0,0-.50105-.99215,2.16351,2.16351,0,0,0-1.75446-.8334,2.17515,2.17515,0,0,0-1.265.37867,2.4871,2.4871,0,0,0-.85328,1.09467,4.20288,4.20288,0,0,0-.30757,1.68,4.16722,4.16722,0,0,0,.30757,1.66516,2.48871,2.48871,0,0,0,.85328,1.10129A2.14472,2.14472,0,0,0,406.00654,11.22739Z" fill="#cf0a2c"/>
    <path d="M412.0686,5.16535a.75174.75174,0,0,0-.349-.15544l-.62009-.10086V4.56179h2.33489l4.16373,5.34769c-.01983-.31583-.03144-.72592-.04133-1.227-.00666-.501-.01655-1.03349-.02977-1.60232-.00994-.56553-.02316-.93924-.03144-1.12113-.01983-.33237-.03638-.5556-.04961-.65812a.41485.41485,0,0,0-.08432-.22324.36041.36041,0,0,0-.22158-.081L416.391,4.909V4.56179h2.84416V4.909l-.65481.08764a.35924.35924,0,0,0-.24308.10418.816.816,0,0,0-.0926.39025c-.01983.20339-.02644.52419-.02644.95908l-.038,5.16414h-.802a68.99658,68.99658,0,0,0-4.68956-6.0455L412.725,9.6631c0,.50434.00333.82679.00994.9723a.65138.65138,0,0,0,.086.32741.4284.4284,0,0,0,.30757.14221l.68459.09922v.35883h-2.87061v-.35883l.68125-.086a.3758.3758,0,0,0,.2282-.08433.35785.35785,0,0,0,.08432-.21662c.01655-.10748.03305-.32741.05127-.65978q.0595-1.09385.05955-2.07525,0-2.21994.0215-2.91692" fill="#cf0a2c"/>
    <path d="M424.81276,4.64117v1.8487h-.44483l-.13893-.90451c-.06116-.44316-.47789-.66308-1.24347-.66308a1.02243,1.02243,0,0,0-.802.339,1.23613,1.23613,0,0,0-.296.84994.942.942,0,0,0,.10582.47127,1.26693,1.26693,0,0,0,.31085.339,1.8035,1.8035,0,0,0,.3704.22654c.1141.048.35223.15213.71108.30756.291.11575.549.22489.77219.33237a3.58709,3.58709,0,0,1,.60687.36214,1.63686,1.63686,0,0,1,.45144.52584,1.49374,1.49374,0,0,1,.1852.74907,2.06749,2.06749,0,0,1-.36874,1.17569,2.4039,2.4039,0,0,1-1.00044.84333,3.01118,3.01118,0,0,1-1.36751.2745,9.89568,9.89568,0,0,1-1.23691-.1174,5.32537,5.32537,0,0,1-.91939-.21827V9.29931h.45144l.14554.84664a1.14529,1.14529,0,0,0,.49772.8301,2.13011,2.13011,0,0,0,1.1327.25135,1.42924,1.42924,0,0,0,1.08309-.39025,1.40737,1.40737,0,0,0,.36707-.99876,1.04892,1.04892,0,0,0-.11571-.51922,1.10945,1.10945,0,0,0-.35223-.36875,3.17572,3.17572,0,0,0-.56882-.301c-.22492-.08929-.47128-.18685-.73253-.291a5.88112,5.88112,0,0,1-.84-.40678,1.75363,1.75363,0,0,1-.587-.60687,1.91823,1.91823,0,0,1-.23975-1.02026,1.61313,1.61313,0,0,1,.69448-1.39563,2.83922,2.83922,0,0,1,1.69658-.49773,7.86992,7.86992,0,0,1,1.6718.21" fill="#cf0a2c"/>
    <path d="M121.08772,20.30886c.09591.31749.17694.56883.24143.7623.06449.19512.15544.45308.26787.77222.1141.32079.21993.6234.31749.91443l1.94957,5.70651c.21993.64655.36544,1.02687.42663,1.15254a.39939.39939,0,0,0,.33236.21331l.58868.0711v.40678h-3.6693v-.40678l.69781-.09921a.74224.74224,0,0,0,.39356-.14552.43658.43658,0,0,0,.10747-.32575,3.76467,3.76467,0,0,0-.20339-.8053q-.20337-.635-.63-1.88508h-3.69576l-.97726,2.34147a1.71228,1.71228,0,0,0-.13064.4845.36205.36205,0,0,0,.043.19678.24734.24734,0,0,0,.13228.0926,1.81806,1.81806,0,0,0,.26127.05953l.721.0926v.40017h-2.97148v-.39686l.53245-.0678a.3876.3876,0,0,0,.26788-.15213,3.27486,3.27486,0,0,0,.29434-.55891l3.80158-8.82352h.9012m-.86647,1.2931-1.75611,4.36546h3.246Q121.01166,23.79709,120.22126,21.602Z" fill="#003594"/>
    <path d="M128.04434,24.23777l.0215,4.17529c0,.458.00993.7871.02646.98884a.648.648,0,0,0,.11906.38694.45953.45953,0,0,0,.29765.10583l.64821.05953v.35387h-2.85077V29.9542l.6912-.08764a.40711.40711,0,0,0,.22653-.08433.38477.38477,0,0,0,.07607-.21993c.01653-.10252.03307-.32245.05291-.65813q.01489-.33485.06449-2.05044c.00661-.28111.01654-.7623.03141-1.43861.01984-.678.02646-1.10956.02646-1.30137a.4506.4506,0,0,0-.03637-.248c-.02811-.05126-.09921-.08433-.215-.10087l-.6267-.09921V23.3068H128.967l2.08021,5.4006,2.13478-5.4006h2.46714v.35883l-.65151.0711a.4103.4103,0,0,0-.291.12567.70318.70318,0,0,0-.10417.36213c-.01158.17363-.0215.50269-.0215.98057v3.20464c0,.47127.00992.79041.0215.95908a.8203.8203,0,0,0,.09425.36213.32626.32626,0,0,0,.248.12567l.7408.09756v.35387h-3.43284V29.9542l.67467-.081a.37443.37443,0,0,0,.35882-.23316,17.27507,17.27507,0,0,0,.10583-2.64738c0-.83671-.01654-1.65027-.048-2.44565L130.996,30.361h-.57545a60.21072,60.21072,0,0,0-2.3762-6.12321" fill="#003594"/>
    <path d="M140.00305,27.00091v2.84251l2.31171-.10914a.46977.46977,0,0,0,.334-.129,2.04974,2.04974,0,0,0,.2315-.45308l.31418-.76892.40016.08764-.33567,1.83713H137.6715v-.3456l.66144-.07607a.34658.34658,0,0,0,.339-.23977,6.34545,6.34545,0,0,0,.09095-1.20216c.01984-.65812.02646-1.21373.02646-1.67177,0-.50434-.01984-1.19223-.05787-2.05706a3.92911,3.92911,0,0,0-.09095-.80529c-.03638-.0926-.13229-.14882-.28773-.16371l-.68128-.081V23.3068h5.22533v1.91154h-.40017l-.1389-.77718a.83632.83632,0,0,0-.17527-.45639.65212.65212,0,0,0-.40678-.11244l-1.77264-.07441v2.73833l1.11451-.02811a.64357.64357,0,0,0,.47128-.13063,1.02224,1.02224,0,0,0,.15213-.47458l.08763-.5523h.377v2.78463h-.377l-.081-.51757a.95757.95757,0,0,0-.15213-.46135.688.688,0,0,0-.47789-.12567l-1.11451-.02976" fill="#003594"/>
    <path d="M147.84434,28.40645c0,.37536.00331.64655.01323.81356a2.23893,2.23893,0,0,0,.048.382.32505.32505,0,0,0,.1141.19347.5444.5444,0,0,0,.2282.08433l.62009.07441v.35387h-3.35842V29.9542l.66309-.081q.30507-.03969.34725-.24308a19.01533,19.01533,0,0,0,.11078-2.79621c0-.77553-.03307-1.647-.09425-2.62589a.6911.6911,0,0,0-.07441-.35221.335.335,0,0,0-.26126-.12236l-.6912-.07772V23.3068h3.246a4.41448,4.41448,0,0,1,1.27822.17693,2.02483,2.02483,0,0,1,.91112.544,1.2479,1.2479,0,0,1,.33568.87474,1.61732,1.61732,0,0,1-.49111,1.2005,2.51344,2.51344,0,0,1-1.27492.64655l2.17281,2.80282a1.07141,1.07141,0,0,0,.23646.23977.55159.55159,0,0,0,.24308.08764l.458.07441v.35387h-1.86028q-.382-.61017-.82347-1.24019-.44151-.62506-.94586-1.27491c-.33732-.43324-.6267-.78214-.86647-1.05a2.33636,2.33636,0,0,0,1.46341-.57545,1.62961,1.62961,0,0,0,.42332-1.15916,1.03794,1.03794,0,0,0-.4597-.87144,1.9172,1.9172,0,0,0-1.179-.339h-.53245v4.60853" fill="#003594"/>
    <path d="M153.87165,23.3068h3.39314v.35883l-.6449.07772a.40442.40442,0,0,0-.28772.13229.71557.71557,0,0,0-.10583.3704c-.01322.17528-.02315.49442-.02315.95908v3.20464c0,.36875.00331.63.00993.78545a1.78618,1.78618,0,0,0,.04465.39025.34852.34852,0,0,0,.10417.20008.5227.5227,0,0,0,.20009.0711l.74576.09756v.35387h-3.43614V29.9542l.65151-.081a.357.357,0,0,0,.3489-.23316q.01489-.05209.04961-.33237c.0215-.18355.038-.46466.05127-.84.00992-.37371.01653-.85159.01653-1.44027q0-.945-.05952-2.315a4.31665,4.31665,0,0,0-.08268-.80529c-.02976-.0926-.124-.14882-.2778-.16371l-.69781-.07772V23.3068" fill="#003594"/>
    <path d="M165.078,23.4457V25.3804h-.40678l-.20339-.91443a.77455.77455,0,0,0-.30426-.49773,2.96277,2.96277,0,0,0-2.71187.172,2.4109,2.4109,0,0,0-.82679,1.11782,4.38806,4.38806,0,0,0-.26127,1.55933,4.51987,4.51987,0,0,0,.14387,1.16908,3.12039,3.12039,0,0,0,.46631.98554,2.24227,2.24227,0,0,0,.80695.70112,2.52141,2.52141,0,0,0,1.15254.248,3.27343,3.27343,0,0,0,1.12774-.15874.96634.96634,0,0,0,.587-.52915l.4597-1.08806.3704.0926L165.17223,30.07a4.2964,4.2964,0,0,1-1.00538.29765,7.16034,7.16034,0,0,1-1.23358.09591,4.6991,4.6991,0,0,1-1.95949-.35883,3.08767,3.08767,0,0,1-1.21538-.93262,3.357,3.357,0,0,1-.58371-1.17239,4.65367,4.65367,0,0,1-.15544-1.1757,4.069,4.069,0,0,1,.35221-1.59571,3.34228,3.34228,0,0,1,1.23688-1.44358,4.03228,4.03228,0,0,1,2.32493-.60687,9.859,9.859,0,0,1,1.15917.07441,5.36545,5.36545,0,0,1,.98554.19347" fill="#003594"/>
    <path d="M170.90684,23.25554c.06284.21331.26293.79041.60522,1.7313l1.4072,3.96529a5.83229,5.83229,0,0,0,.30426.74577.35162.35162,0,0,0,.27119.19678l.42993.05291v.36048H170.849v-.36379l.61018-.0711a.61353.61353,0,0,0,.291-.10087.28347.28347,0,0,0,.06449-.21331,9.49376,9.49376,0,0,0-.56718-1.7561h-2.59778l-.6234,1.50145a.903.903,0,0,0-.10252.35552c0,.09095.01653.14221.048.1637a.57668.57668,0,0,0,.23646.05622l.6267.07441v.35387h-2.4043V29.9542l.38859-.05291a.35857.35857,0,0,0,.22322-.11906,1.4606,1.4606,0,0,0,.2067-.36544l2.75487-6.16125h.90285m-.82844,1.136-1.19554,2.84251h2.20588Q170.6274,25.9021,170.0784,24.39155Z" fill="#003594"/>
    <path d="M175.87091,23.91036a.69068.69068,0,0,0-.34725-.15213l-.61844-.10252V23.3068h2.3332l4.16206,5.34769c-.01983-.31583-.03141-.72262-.038-1.22365s-.01654-1.0368-.02977-1.60232c-.01322-.56718-.02148-.93924-.03141-1.11948-.01984-.33568-.03638-.5556-.05291-.65978a.37035.37035,0,0,0-.08268-.22158.3244.3244,0,0,0-.21992-.081l-.74908-.08764V23.3068h2.84086v.34891l-.65151.08764a.389.389,0,0,0-.24639.10583.81514.81514,0,0,0-.0926.38859c-.01655.20339-.02647.52584-.02647.96238l-.03472,5.16083h-.802a69.795,69.795,0,0,0-4.69286-6.04715l.03968,4.09592c0,.50765.00332.8301.00993.97231a.62814.62814,0,0,0,.086.32575.40387.40387,0,0,0,.30756.14221l.68459.10418v.35387h-2.87062V29.9542l.68127-.08764a.41985.41985,0,0,0,.22985-.08433.38175.38175,0,0,0,.08268-.21993c.01323-.10252.03307-.32245.05291-.65813q.05706-1.09136.05788-2.07359,0-2.21994.01819-2.92022" fill="#003594"/>
    <path d="M192.90445,20.30886c.09757.31749.17859.56883.24308.7623.0678.19512.15379.45308.27119.77222.11243.32079.21661.6234.31252.91443l1.95124,5.70651c.22322.64655.36543,1.02687.42992,1.15254a.38824.38824,0,0,0,.33238.21331l.587.0711v.40678h-3.66765v-.40678l.69286-.09921a.75661.75661,0,0,0,.39851-.14552.44986.44986,0,0,0,.10252-.32575,3.76467,3.76467,0,0,0-.20339-.8053q-.20339-.635-.63-1.88508h-3.69409l-.97563,2.34147a1.73508,1.73508,0,0,0-.13229.4845.37648.37648,0,0,0,.04466.19678.24493.24493,0,0,0,.129.0926,1.81039,1.81039,0,0,0,.26622.05953l.7193.0926v.40017H187.1103v-.39686l.5308-.0678a.38777.38777,0,0,0,.27119-.15213,3.12939,3.12939,0,0,0,.28938-.55891l3.80158-8.82352h.9012m-.86151,1.2931-1.75776,4.36546h3.24267Q192.83584,23.79709,192.04294,21.602Z" fill="#003594"/>
    <path d="M201.96774,23.38783v1.85036H201.518l-.1389-.90451c-.06119-.44151-.47789-.66474-1.24349-.66474a1.01116,1.01116,0,0,0-.80032.339,1.25037,1.25037,0,0,0-.29766.84994.90392.90392,0,0,0,.11079.47127,1.13029,1.13029,0,0,0,.30591.339,1.85417,1.85417,0,0,0,.37207.22654c.11243.048.35221.15048.70939.30591.291.11575.549.22985.77552.33568a3.802,3.802,0,0,1,.60357.35883,1.5953,1.5953,0,0,1,.45309.52915,1.50564,1.50564,0,0,1,.18354.74907,2.06375,2.06375,0,0,1-.3671,1.17239,2.38169,2.38169,0,0,1-1.00208.84664,2.98078,2.98078,0,0,1-1.36584.27119,9.29691,9.29691,0,0,1-1.23688-.11244,5.36218,5.36218,0,0,1-.91775-.21993V28.04762h.44978l.14551.84664a1.137,1.137,0,0,0,.49608.82679,2.125,2.125,0,0,0,1.13437.25134,1.408,1.408,0,0,0,1.08143-.39025,1.38248,1.38248,0,0,0,.36876-.99546,1.07613,1.07613,0,0,0-.11576-.52253,1.19861,1.19861,0,0,0-.3489-.36875,2.91728,2.91728,0,0,0-.57213-.296q-.33983-.14138-.73255-.29434a5.11728,5.11728,0,0,1-.84-.40678,1.76153,1.76153,0,0,1-.58868-.60356,1.98429,1.98429,0,0,1-.23811-1.02191,1.62,1.62,0,0,1,.6945-1.39728,2.84889,2.84889,0,0,1,1.69491-.49773,8.00778,8.00778,0,0,1,1.67674.21" fill="#003594"/>
    <path d="M207.97519,23.38783v1.85036h-.44645l-.1389-.90451c-.06449-.44151-.47789-.66474-1.24352-.66474a1.00657,1.00657,0,0,0-.80032.339,1.23662,1.23662,0,0,0-.301.84994.93723.93723,0,0,0,.10915.47127,1.19653,1.19653,0,0,0,.31088.339,1.687,1.687,0,0,0,.372.22654q.16869.07193.70608.30591c.29433.11575.5523.22985.77552.33568a3.83677,3.83677,0,0,1,.60687.35883,1.69616,1.69616,0,0,1,.45308.52915,1.53953,1.53953,0,0,1,.18023.74907,2.05328,2.05328,0,0,1-.36874,1.17239,2.37776,2.37776,0,0,1-.9971.84664,2.99477,2.99477,0,0,1-1.36917.27119,9.40187,9.40187,0,0,1-1.23688-.11244,5.44008,5.44008,0,0,1-.91773-.21993V28.04762h.45142l.14551.84664a1.12547,1.12547,0,0,0,.49441.82679,2.13783,2.13783,0,0,0,1.13767.25134,1.31194,1.31194,0,0,0,1.44688-1.3857,1.05762,1.05762,0,0,0-.1174-.52253,1.17943,1.17943,0,0,0-.3489-.36875,2.90016,2.90016,0,0,0-.57049-.296q-.33979-.14138-.73089-.29434a5.345,5.345,0,0,1-.84168-.40678,1.75357,1.75357,0,0,1-.58537-.60356,1.93616,1.93616,0,0,1-.24142-1.02191,1.61742,1.61742,0,0,1,.69617-1.39728,2.83667,2.83667,0,0,1,1.69327-.49773,8.00756,8.00756,0,0,1,1.67672.21" fill="#003594"/>
    <path d="M213.36422,23.17782a4.70127,4.70127,0,0,1,1.57917.25135,3.32066,3.32066,0,0,1,1.19222.71435,3.08944,3.08944,0,0,1,.74577,1.14593,4.693,4.693,0,0,1,0,3.069,3.11754,3.11754,0,0,1-.74577,1.13932,3.3271,3.3271,0,0,1-1.19222.71765,4.7871,4.7871,0,0,1-1.57917.248,4.36615,4.36615,0,0,1-2.0124-.43324,2.98761,2.98761,0,0,1-1.308-1.25838,4.02951,4.02951,0,0,1-.44811-1.94792,4.23984,4.23984,0,0,1,.26125-1.51468,3.14253,3.14253,0,0,1,.74908-1.15585,3.24908,3.24908,0,0,1,1.19222-.72427,4.65687,4.65687,0,0,1,1.566-.25135m0,6.79457a2.2193,2.2193,0,0,0,.98885-.22158,2.26282,2.26282,0,0,0,.77221-.63,3.08553,3.08553,0,0,0,.49772-.98884,4.56985,4.56985,0,0,0,.17364-1.31129,4.68022,4.68022,0,0,0-.17364-1.32783,2.98338,2.98338,0,0,0-.501-.98719,2.19159,2.19159,0,0,0-1.75776-.83671,2.15286,2.15286,0,0,0-1.265.38033,2.45928,2.45928,0,0,0-.85326,1.09467,4.69745,4.69745,0,0,0,0,3.34355,2.48036,2.48036,0,0,0,.85326,1.10459A2.15288,2.15288,0,0,0,213.36422,29.97239Z" fill="#003594"/>
    <path d="M224.09929,23.4457V25.3804h-.40678l-.20339-.91443a.77922.77922,0,0,0-.3026-.49773,2.966,2.966,0,0,0-2.71354.172,2.43371,2.43371,0,0,0-.82679,1.11782,4.77781,4.77781,0,0,0-.11574,2.72841,3.08092,3.08092,0,0,0,.46464.98554,2.24241,2.24241,0,0,0,.807.70112,2.52854,2.52854,0,0,0,1.1542.248,3.2632,3.2632,0,0,0,1.12609-.15874.97391.97391,0,0,0,.58868-.52915l.458-1.08806.37207.0926L224.19353,30.07a4.28251,4.28251,0,0,1-1.00372.29765,7.18752,7.18752,0,0,1-1.23358.09591,4.7021,4.7021,0,0,1-1.96116-.35883,3.08176,3.08176,0,0,1-1.21372-.93262,3.39131,3.39131,0,0,1-.58537-1.17239,4.73029,4.73029,0,0,1-.15543-1.1757,4.09843,4.09843,0,0,1,.35221-1.59571,3.34228,3.34228,0,0,1,1.23688-1.44358,4.04153,4.04153,0,0,1,2.32659-.60687,9.88137,9.88137,0,0,1,1.15917.07441,5.37292,5.37292,0,0,1,.98388.19347" fill="#003594"/>
    <path d="M225.36922,23.3068H228.764v.35883l-.64656.07772a.40775.40775,0,0,0-.28772.13229.73158.73158,0,0,0-.10582.3704c-.01325.17528-.02316.49442-.02316.95908v3.20464c0,.36875.00331.63.00992.78545a1.89479,1.89479,0,0,0,.04466.39025.35835.35835,0,0,0,.10418.20008.52253.52253,0,0,0,.20009.0711l.74575.09756v.35387h-3.43615V29.9542l.65317-.081a.36022.36022,0,0,0,.3489-.23316c.00828-.03473.0248-.14551.048-.33237.0215-.18355.038-.46466.05125-.84.00994-.37371.01655-.85159.01655-1.44027q0-.945-.05788-2.315a4.4097,4.4097,0,0,0-.08432-.80529c-.02977-.0926-.12237-.14882-.2778-.16371l-.69783-.07772V23.3068" fill="#003594"/>
    <path d="M233.72809,23.25554q.09178.32.60357,1.7313l1.40883,3.96529a5.90876,5.90876,0,0,0,.3026.74577.35164.35164,0,0,0,.27119.19678l.42995.05291v.36048h-3.074v-.36379l.61018-.0711a.60536.60536,0,0,0,.28938-.10087.28333.28333,0,0,0,.06613-.21331,9.57092,9.57092,0,0,0-.56882-1.7561H231.4693l-.62176,1.50145a.91068.91068,0,0,0-.10418.35552c0,.09095.01655.14221.048.1637a.57676.57676,0,0,0,.23647.05622l.6267.07441v.35387h-2.40266V29.9542l.38693-.05291a.35438.35438,0,0,0,.22325-.11906,1.46059,1.46059,0,0,0,.2067-.36544l2.75487-6.16125h.9045m-.8301,1.136-1.19555,2.84251h2.20588Q233.44946,25.9021,232.898,24.39155Z" fill="#003594"/>
    <path d="M240.23824,23.84918v4.56058c0,.47127.00992.79041.02316.96239a.80835.80835,0,0,0,.09424.36544.3121.3121,0,0,0,.24805.11906l.96569.09756v.35387h-3.88923V29.9542l.888-.10418a.45905.45905,0,0,0,.23645-.07772.31714.31714,0,0,0,.10418-.17032,2.03468,2.03468,0,0,0,.048-.34891c.01653-.18851.03141-.463.04794-.81687.01325-.35883.01986-.8301.01986-1.41877q0-2.05375-.08765-3.16826l-1.647.05126c-.16534.00331-.27116.043-.31582.1174a1.53081,1.53081,0,0,0-.14882.47127l-.1389.6912-.4134-.02976.13559-1.84375h6.41094l.11574,1.84375-.40676.02976-.12237-.6912a1.77057,1.77057,0,0,0-.1356-.46466c-.0463-.07772-.15543-.12071-.32907-.124l-1.70319-.05126" fill="#003594"/>
    <path d="M243.68761,23.3068h3.39482v.35883l-.64656.07772a.40775.40775,0,0,0-.28772.13229.73529.73529,0,0,0-.10252.3704c-.01655.17528-.02316.49442-.02316.95908v3.20464c0,.36875.00331.63.00661.78545a1.8718,1.8718,0,0,0,.048.39025.35894.35894,0,0,0,.10085.20008.57066.57066,0,0,0,.20009.0711l.74908.09756v.35387h-3.43945V29.9542l.65648-.081a.36693.36693,0,0,0,.3489-.23316c.00828-.03473.0248-.14551.04466-.33237.02314-.18355.038-.46466.05125-.84.01325-.37371.01986-.85159.01986-1.44027q0-.945-.05788-2.315a4.7611,4.7611,0,0,0-.08432-.80529c-.03308-.0926-.12568-.14882-.28113-.16371l-.69781-.07772V23.3068" fill="#003594"/>
    <path d="M251.72568,23.17782a4.718,4.718,0,0,1,1.58081.25135,3.27137,3.27137,0,0,1,1.19058.71435,2.99106,2.99106,0,0,1,.74577,1.14593,4.665,4.665,0,0,1,0,3.069,3.01664,3.01664,0,0,1-.74577,1.13932,3.27763,3.27763,0,0,1-1.19058.71765,4.80422,4.80422,0,0,1-1.58081.248,4.36865,4.36865,0,0,1-2.01076-.43324,2.96282,2.96282,0,0,1-1.30468-1.25838,4.01219,4.01219,0,0,1-.45308-1.94792,4.23984,4.23984,0,0,1,.26127-1.51468,3.16714,3.16714,0,0,1,.75072-1.15585,3.2424,3.2424,0,0,1,1.19389-.72427,4.63723,4.63723,0,0,1,1.56265-.25135m0,6.79457a2.22314,2.22314,0,0,0,.99213-.22158,2.25181,2.25181,0,0,0,.76893-.63,2.95724,2.95724,0,0,0,.49772-.98884,4.57076,4.57076,0,0,0,.17362-1.31129,4.68116,4.68116,0,0,0-.17362-1.32783,2.92228,2.92228,0,0,0-.501-.98719,2.19168,2.19168,0,0,0-1.75776-.83671,2.14618,2.14618,0,0,0-1.26168.38033,2.48809,2.48809,0,0,0-.85656,1.09467,4.721,4.721,0,0,0,0,3.34355,2.50933,2.50933,0,0,0,.85656,1.10459A2.1462,2.1462,0,0,0,251.72568,29.97239Z" fill="#003594"/>
    <path d="M257.52314,23.91036a.71645.71645,0,0,0-.3489-.15213l-.61679-.10252V23.3068h2.3332l4.16206,5.34769c-.01983-.31583-.03141-.72262-.04133-1.22365-.00661-.501-.01653-1.0368-.02977-1.60232-.00992-.56718-.02314-.93924-.03141-1.11948q-.02975-.50352-.04961-.65978a.39279.39279,0,0,0-.08268-.22158.33889.33889,0,0,0-.21992-.081l-.75238-.08764V23.3068h2.84416v.34891l-.65481.08764a.37119.37119,0,0,0-.24308.10583.79562.79562,0,0,0-.0926.38859c-.01986.20339-.02647.52584-.02647.96238l-.03472,5.16083h-.802a70.4509,70.4509,0,0,0-4.69286-6.04715l.03638,4.09592c0,.50765.00331.8301.00992.97231a.69913.69913,0,0,0,.086.32575.41808.41808,0,0,0,.31088.14221l.68459.10418v.35387H256.397V29.9542l.68459-.08764a.39572.39572,0,0,0,.22489-.08433.35987.35987,0,0,0,.08432-.21993c.01653-.10252.03308-.32245.05291-.65813q.05707-1.09136.05788-2.07359,0-2.21994.0215-2.92022" fill="#003594"/>
    <path d="M273.04861,23.17782a4.70117,4.70117,0,0,1,1.57917.25135,3.29259,3.29259,0,0,1,1.19225.71435,3.03,3.03,0,0,1,.74577,1.14593,4.69347,4.69347,0,0,1,0,3.069,3.05655,3.05655,0,0,1-.74577,1.13932,3.2989,3.2989,0,0,1-1.19225.71765,4.787,4.787,0,0,1-1.57917.248,4.37575,4.37575,0,0,1-2.0124-.43324,2.97147,2.97147,0,0,1-1.30468-1.25838,4.03026,4.03026,0,0,1-.45142-1.94792,4.20363,4.20363,0,0,1,.26127-1.51468,3.16361,3.16361,0,0,1,.74905-1.15585,3.24939,3.24939,0,0,1,1.19555-.72427,4.63027,4.63027,0,0,1,1.56262-.25135m0,6.79457a2.22318,2.22318,0,0,0,.99216-.22158,2.24624,2.24624,0,0,0,.76727-.63,2.92663,2.92663,0,0,0,.49772-.98884,4.51113,4.51113,0,0,0,.17528-1.31129,4.62,4.62,0,0,0-.17528-1.32783,2.91948,2.91948,0,0,0-.49939-.98719,2.19159,2.19159,0,0,0-1.75776-.83671,2.15132,2.15132,0,0,0-1.26332.38033,2.497,2.497,0,0,0-.8549,1.09467,4.69708,4.69708,0,0,0,0,3.34355,2.51835,2.51835,0,0,0,.8549,1.10459A2.15134,2.15134,0,0,0,273.04861,29.97239Z" fill="#003594"/>
    <path d="M280.76422,27.00091v1.432c0,.36048.00333.62009.00664.77388a1.84013,1.84013,0,0,0,.04794.38859.3734.3734,0,0,0,.10418.20008.42478.42478,0,0,0,.19678.06118l.9012.09426v.35717h-3.59158V29.9542l.668-.081a.35346.35346,0,0,0,.34229-.24308,15.56986,15.56986,0,0,0,.11079-2.57959q0-.97479-.05788-2.34478a4.82334,4.82334,0,0,0-.08432-.81025c-.03308-.09425-.12568-.14882-.28111-.16536l-.68789-.07772v-.3456h5.09965v1.90162h-.39687l-.13393-.77388a.89261.89261,0,0,0-.17695-.47458.61607.61607,0,0,0-.41006-.1141l-1.65691-.07441v2.76479l1.05335-.02811c.2315-.00331.38032-.04961.4415-.13229a1.05635,1.05635,0,0,0,.14551-.47623l.08765-.549h.40676v2.79125h-.40676l-.0711-.501a1.97337,1.97337,0,0,0-.081-.37371.31381.31381,0,0,0-.167-.172,1.09855,1.09855,0,0,0-.3919-.06449l-1.017-.02976" fill="#003594"/>
    <path d="M293.40256,20.17988a5.71888,5.71888,0,0,1,2.06367.34891,4.14874,4.14874,0,0,1,1.53618,1.02522,4.44172,4.44172,0,0,1,.96569,1.63043,7.23268,7.23268,0,0,1,0,4.32412,4.42877,4.42877,0,0,1-.96569,1.63374,4.08375,4.08375,0,0,1-1.556,1.02357,6.1558,6.1558,0,0,1-4.086,0,4.096,4.096,0,0,1-1.55932-1.02357,4.44441,4.44441,0,0,1-.96239-1.63374,7.19811,7.19811,0,0,1,0-4.32412,4.41874,4.41874,0,0,1,.96569-1.63043,4.14731,4.14731,0,0,1,1.54279-1.02522,5.71725,5.71725,0,0,1,2.0554-.34891m0,9.79251a3.04275,3.04275,0,0,0,1.41711-.32906,3.21244,3.21244,0,0,0,1.098-.94254,4.47928,4.47928,0,0,0,.71105-1.47665,6.86619,6.86619,0,0,0,.248-1.88012,6.70012,6.70012,0,0,0-.25464-1.8917,4.49553,4.49553,0,0,0-.70114-1.46342,3.14608,3.14608,0,0,0-1.09465-.92931,3.17666,3.17666,0,0,0-2.84252,0,3.25739,3.25739,0,0,0-1.10459.93924,4.51071,4.51071,0,0,0-.70442,1.46011,7.25549,7.25549,0,0,0,0,3.7619,4.53883,4.53883,0,0,0,.711,1.47,3.27953,3.27953,0,0,0,1.1079.95246A3.02347,3.02347,0,0,0,293.40256,29.97239Z" fill="#003594"/>
    <path d="M301.91519,28.40645c0,.37536.00664.64655.01655.81356a2.14015,2.14015,0,0,0,.04463.382.35321.35321,0,0,0,.11576.19347.54537.54537,0,0,0,.22653.08433l.62009.07441v.35387h-3.3551V29.9542l.66142-.081c.20339-.02646.3208-.10748.3489-.24308a19.77306,19.77306,0,0,0,.10749-2.79621c0-.77553-.02977-1.647-.09427-2.62589a.71611.71611,0,0,0-.0711-.35221.3467.3467,0,0,0-.26125-.12236l-.6912-.07772V23.3068h3.24267a4.42109,4.42109,0,0,1,1.28152.17693,2.02476,2.02476,0,0,1,.91112.544,1.245,1.245,0,0,1,.33238.87474,1.60493,1.60493,0,0,1-.49111,1.2005,2.50018,2.50018,0,0,1-1.27491.64655l2.1728,2.80282a1.147,1.147,0,0,0,.23647.23977.58282.58282,0,0,0,.24472.08764l.4597.07441v.35387h-1.86359q-.38445-.61017-.82349-1.24019c-.29433-.4167-.60851-.84167-.9475-1.27491-.33568-.43324-.6234-.78214-.86482-1.05a2.33839,2.33839,0,0,0,1.46672-.57545,1.62749,1.62749,0,0,0,.42-1.15916,1.0428,1.0428,0,0,0-.45639-.87144,1.934,1.934,0,0,0-1.179-.339h-.53577v4.60853" fill="#003594"/>
    <path d="M311.14218,23.84918v4.56058c0,.47127.00661.79041.02316.96239a.7903.7903,0,0,0,.0926.36544.31114.31114,0,0,0,.24639.11906l.969.09756v.35387H308.5841V29.9542l.88467-.10418a.43715.43715,0,0,0,.23647-.07772.32882.32882,0,0,0,.10582-.17032,2.32519,2.32519,0,0,0,.0463-.34891c.01983-.18851.03472-.463.04794-.81687.01655-.35883.02316-.8301.02316-1.41877q0-2.05375-.08765-3.16826l-1.65025.05126c-.16537.00331-.27119.043-.31585.1174a1.74584,1.74584,0,0,0-.14882.47127l-.1389.6912-.4134-.02976.1389-1.84375h6.41094l.11576,1.84375-.40678.02976-.12568-.6912a1.67662,1.67662,0,0,0-.13229-.46466c-.04961-.07772-.15873-.12071-.334-.124l-1.69824-.05126" fill="#003594"/>
    <path d="M317.401,26.50979h3.48906c-.00992-.60356-.02977-1.2005-.05788-1.79414-.01983-.339-.03638-.56222-.05291-.673a.27459.27459,0,0,0-.2993-.296l-.711-.081V23.3068h3.40471v.35883l-.65648.048a.64642.64642,0,0,0-.23811.05788.27235.27235,0,0,0-.1174.18851,1.89061,1.89061,0,0,0-.04794.39355c-.00661.1637-.00994.45143-.00994.85159v3.20464c0,.36875.00333.63.00664.78545a1.872,1.872,0,0,0,.04794.39025.34877.34877,0,0,0,.10088.20008.57027.57027,0,0,0,.20009.0711l.74905.09756v.35387h-3.43943V29.9542l.65812-.081a.3556.3556,0,0,0,.3456-.23316,13.76216,13.76216,0,0,0,.1174-2.5614H317.401v1.33775c0,.36875.00331.62671.00661.78215a1.90171,1.90171,0,0,0,.048.39025.34681.34681,0,0,0,.10085.19678.5186.5186,0,0,0,.19678.07441l.75238.09425v.35387h-3.43945V29.9542l.65648-.081a.36693.36693,0,0,0,.3489-.23316c.00828-.03473.0248-.14551.04466-.33237.02314-.18355.038-.46466.05125-.84.01322-.37371.01986-.85159.01986-1.44027q0-.945-.05788-2.315a4.58126,4.58126,0,0,0-.08432-.80529c-.03308-.0926-.12568-.14882-.28113-.16371l-.69781-.07772V23.3068H318.461v.35883l-.64987.05126a.66479.66479,0,0,0-.23811.05788.279.279,0,0,0-.1141.1852,1.9216,1.9216,0,0,0-.048.39355c-.00661.167-.00992.45473-.00992.85821v1.29806" fill="#003594"/>
    <path d="M328.19228,23.17782a4.70821,4.70821,0,0,1,1.57917.25135,3.27158,3.27158,0,0,1,1.19058.71435,3.01377,3.01377,0,0,1,.74741,1.14593,4.693,4.693,0,0,1,0,3.069,3.04,3.04,0,0,1-.74741,1.13932,3.27784,3.27784,0,0,1-1.19058.71765,4.79421,4.79421,0,0,1-1.57917.248,4.37567,4.37567,0,0,1-2.0124-.43324,2.96269,2.96269,0,0,1-1.30468-1.25838,4.01191,4.01191,0,0,1-.45308-1.94792,4.20372,4.20372,0,0,1,.26291-1.51468,3.14253,3.14253,0,0,1,.74908-1.15585,3.2424,3.2424,0,0,1,1.19389-.72427,4.647,4.647,0,0,1,1.56429-.25135m0,6.79457a2.21611,2.21611,0,0,0,.99049-.22158,2.25149,2.25149,0,0,0,.76891-.63,2.92667,2.92667,0,0,0,.49774-.98884,4.57076,4.57076,0,0,0,.17362-1.31129,4.68116,4.68116,0,0,0-.17362-1.32783,2.89294,2.89294,0,0,0-.50105-.98719,2.19146,2.19146,0,0,0-1.7561-.83671,2.1514,2.1514,0,0,0-1.26335.38033,2.48822,2.48822,0,0,0-.85654,1.09467,4.721,4.721,0,0,0,0,3.34355,2.50946,2.50946,0,0,0,.85654,1.10459A2.15142,2.15142,0,0,0,328.19228,29.97239Z" fill="#003594"/>
    <path d="M335.88806,26.63381q1.86524-.14634,1.86359-1.57587a1.116,1.116,0,0,0-.22325-.6912,1.34186,1.34186,0,0,0-.587-.44316,2.00335,2.00335,0,0,0-.7623-.15213h-.6234v4.635c0,.43985.00661.74246.01653.91112a.82532.82532,0,0,0,.0926.3704.30965.30965,0,0,0,.23978.1389l.93922.12733v.35387h-3.623V29.9542l.66806-.08764a.34324.34324,0,0,0,.33566-.24308,14.88079,14.88079,0,0,0,.11576-2.59943q0-1.13849-.05788-2.32494a3.594,3.594,0,0,0-.08432-.79868.29231.29231,0,0,0-.27119-.16371l-.69617-.07772V23.3068h3.34188a3.1834,3.1834,0,0,1,1.72138.44978,1.39448,1.39448,0,0,1,.72427,1.24845,1.58232,1.58232,0,0,1-.37868,1.012,2.59561,2.59561,0,0,1-1.06324.74907,4.30482,4.30482,0,0,1-1.51965.31253l-.16865-.44481" fill="#003594"/>
    <path d="M343.67145,23.25554q.09178.32.60357,1.7313l1.40886,3.96529a5.90876,5.90876,0,0,0,.3026.74577.3516.3516,0,0,0,.27119.19678l.42992.05291v.36048h-3.074v-.36379l.61018-.0711a.62112.62112,0,0,0,.291-.10087.29052.29052,0,0,0,.06449-.21331,9.426,9.426,0,0,0-.56885-1.7561h-2.59611l-.6234,1.50145a.91068.91068,0,0,0-.10418.35552c0,.09095.01653.14221.04961.1637a.5578.5578,0,0,0,.23481.05622l.6267.07441v.35387h-2.40263V29.9542l.38693-.05291a.35432.35432,0,0,0,.22322-.11906,1.46059,1.46059,0,0,0,.2067-.36544l2.75487-6.16125h.9045m-.8301,1.136-1.19553,2.84251h2.20588Q343.39284,25.9021,342.84135,24.39155Z" fill="#003594"/>
    <path d="M349.70373,27.00091v2.84251l2.31006-.10914a.471.471,0,0,0,.33566-.129,2.10824,2.10824,0,0,0,.23317-.45308l.31252-.76892.39687.08764-.33238,1.83713h-5.59076v-.3456l.66309-.07607a.35735.35735,0,0,0,.34229-.23977,6.73438,6.73438,0,0,0,.08929-1.20216c.01653-.65812.02644-1.21373.02644-1.67177,0-.50434-.01983-1.19223-.05786-2.05706a4.0601,4.0601,0,0,0-.091-.80529.30923.30923,0,0,0-.28772-.16371l-.68459-.081V23.3068h5.22533v1.91154h-.39687l-.1389-.77718a.87977.87977,0,0,0-.17362-.45639.66711.66711,0,0,0-.40678-.11244l-1.77429-.07441v2.73833l1.1112-.02811a.63517.63517,0,0,0,.47128-.13063,1.03574,1.03574,0,0,0,.15543-.47458l.08765-.5523h.377v2.78463h-.377l-.081-.51757a.97562.97562,0,0,0-.15212-.46135.69537.69537,0,0,0-.48119-.12567l-1.1112-.02976" fill="#003594"/>
    <path d="M357.79469,30.30807h-3.35841v-.36048l.65481-.0711a.36408.36408,0,0,0,.3489-.23977,1.95982,1.95982,0,0,0,.05127-.33237c.01983-.18024.03308-.458.0463-.8334q.01983-.56056.01983-1.44358,0-.95-.05952-2.31832a4.69912,4.69912,0,0,0-.08268-.8053c-.03308-.0926-.12732-.14717-.28111-.1637l-.69781-.07772V23.3068H357.679a5.84983,5.84983,0,0,1,2.08848.35552,3.29243,3.29243,0,0,1,1.5031,1.098,2.99592,2.99592,0,0,1,.56388,1.85036,3.83728,3.83728,0,0,1-.26127,1.39893,3.43057,3.43057,0,0,1-.77552,1.19389,3.69947,3.69947,0,0,1-1.26829.81191,4.74473,4.74473,0,0,1-1.73463.29268m-1.02355-.6482a3.2369,3.2369,0,0,0,1.07812.15874,2.47788,2.47788,0,0,0,1.36917-.38529,2.56686,2.56686,0,0,0,.93758-1.12443,4.10939,4.10939,0,0,0,.33568-1.72138,2.938,2.938,0,0,0-.23647-1.21042,2.46738,2.46738,0,0,0-.6482-.87805,2.73158,2.73158,0,0,0-.931-.5308,3.47752,3.47752,0,0,0-1.08806-.17032h-.81685Z" fill="#003594"/>
    <path d="M363.02,23.3068h3.39482v.35883l-.64656.07772a.40775.40775,0,0,0-.28772.13229.73181.73181,0,0,0-.10585.3704c-.01322.17528-.02314.49442-.02314.95908v3.20464c0,.36875.00331.63.00992.78545a1.77754,1.77754,0,0,0,.0463.39025.34865.34865,0,0,0,.10252.20008.52287.52287,0,0,0,.20009.0711l.74577.09756v.35387H363.02V29.9542l.65317-.081a.36023.36023,0,0,0,.3489-.23316c.00992-.03473.0248-.14551.048-.33237.02314-.18355.038-.46466.05125-.84.00992-.37371.01655-.85159.01655-1.44027q0-.945-.05788-2.315a4.25428,4.25428,0,0,0-.08435-.80529c-.02975-.0926-.12235-.14882-.2778-.16371l-.69781-.07772V23.3068" fill="#003594"/>
    <path d="M373.71375,23.4457V25.3804H373.307l-.20339-.91443a.78119.78119,0,0,0-.30427-.49773,2.96277,2.96277,0,0,0-2.71187.172,2.41091,2.41091,0,0,0-.82679,1.11782,4.38774,4.38774,0,0,0-.26291,1.55933,4.51849,4.51849,0,0,0,.14551,1.16908,3.12066,3.12066,0,0,0,.46631.98554,2.2287,2.2287,0,0,0,.807.70112,2.52132,2.52132,0,0,0,1.15253.248,3.27351,3.27351,0,0,0,1.12775-.15874.96632.96632,0,0,0,.587-.52915l.4597-1.08806.3704.0926L373.808,30.07a4.2964,4.2964,0,0,1-1.00538.29765,7.17381,7.17381,0,0,1-1.23358.09591,4.69391,4.69391,0,0,1-1.95949-.35883,3.08758,3.08758,0,0,1-1.21538-.93262,3.357,3.357,0,0,1-.58371-1.17239,4.65365,4.65365,0,0,1-.15543-1.1757,4.06877,4.06877,0,0,1,.35221-1.59571,3.32014,3.32014,0,0,1,1.23688-1.44358,4.03221,4.03221,0,0,1,2.32492-.60687,9.85883,9.85883,0,0,1,1.15917.07441,5.39457,5.39457,0,0,1,.98555.19347" fill="#003594"/>
    <path d="M384.22556,20.47091l-.00661,2.229h-.44481l-.15545-.95577a.97712.97712,0,0,0-.56221-.77553,2.635,2.635,0,0,0-1.21372-.24473,1.51339,1.51339,0,0,0-1.19555.5523,1.90154,1.90154,0,0,0-.48119,1.29145,1.38347,1.38347,0,0,0,.3208.92931,2.3911,2.3911,0,0,0,.68459.57214c.24472.13229.68789.339,1.32451.62009a9.60311,9.60311,0,0,1,1.28154.68128,3.14113,3.14113,0,0,1,.86482.84,2.06014,2.06014,0,0,1,.35551,1.2005,2.86227,2.86227,0,0,1-.25464,1.18893,3.03252,3.03252,0,0,1-.721.99876,3.38852,3.38852,0,0,1-1.11287.67466,3.97539,3.97539,0,0,1-1.41217.24142,9.08674,9.08674,0,0,1-1.72135-.14386,4.87245,4.87245,0,0,1-1.11784-.3241V27.53832h.4597l.1389.97727a1.459,1.459,0,0,0,.678,1.13105,3.37085,3.37085,0,0,0,1.6635.32575,2.13739,2.13739,0,0,0,1.14264-.296,1.92658,1.92658,0,0,0,.72261-.78876,2.29727,2.29727,0,0,0,.24308-1.03679,1.56249,1.56249,0,0,0-.6234-1.27822,8.19688,8.19688,0,0,0-1.91486-1.03679,8.08839,8.08839,0,0,1-1.15917-.58206,2.49728,2.49728,0,0,1-.802-.80364,2.30771,2.30771,0,0,1-.33238-1.26664,2.4279,2.4279,0,0,1,.44317-1.4535,2.77911,2.77911,0,0,1,1.15586-.93262,3.73962,3.73962,0,0,1,1.518-.31749,8.17064,8.17064,0,0,1,.81688.0463c.29433.02811.56882.0678.82016.11575s.45308.09095.597.129" fill="#003594"/>
    <path d="M392.25867,28.34527c.01983-.35883.02811-.87144.02811-1.54114q0-1.00207-.05788-2.09178c-.01819-.33568-.03472-.5556-.05125-.66308a.39514.39514,0,0,0-.07774-.22158.36552.36552,0,0,0-.22653-.08433l-.70608-.07772V23.3068H394.028v.35883l-.57546.0711a.41068.41068,0,0,0-.29269.12237.63033.63033,0,0,0-.09757.339c-.01653.15874-.03141.49773-.05125,1.01034L392.9267,28.213a2.32121,2.32121,0,0,1-.63,1.60728,2.68,2.68,0,0,1-2.01737.64324q-3.16,0-3.16-1.91485c.00331-.23977.00661-.468.00992-.6945.00331-.22323.00331-.60686.00331-1.15585,0-.54568-.01983-1.20877-.06449-1.98264-.01983-.34229-.03472-.56553-.05125-.673a.38474.38474,0,0,0-.07774-.21827.37758.37758,0,0,0-.22653-.07772l-.6912-.081V23.3068h3.34355v.35883l-.62009.06449a.40607.40607,0,0,0-.28772.11575.66782.66782,0,0,0-.10418.35883q-.01737.2654-.01819,1.00042v3.13354a1.3946,1.3946,0,0,0,.23481.82348,1.441,1.441,0,0,0,.67961.50765,2.93931,2.93931,0,0,0,1.07154.17363q1.86524,0,1.938-1.49815" fill="#003594"/>
    <path d="M397.26075,28.40645c0,.37536.00661.64655.01655.81356a2.30269,2.30269,0,0,0,.04466.382.34547.34547,0,0,0,.11738.19347.52875.52875,0,0,0,.22486.08433l.62009.07441v.35387h-3.3551V29.9542l.66142-.081c.20342-.02646.3208-.10748.3489-.24308a19.773,19.773,0,0,0,.10749-2.79621c0-.77553-.02972-1.647-.09422-2.62589a.69809.69809,0,0,0-.0711-.35221.34686.34686,0,0,0-.2613-.12236l-.6912-.07772V23.3068h3.24267a4.42109,4.42109,0,0,1,1.28152.17693,2.02508,2.02508,0,0,1,.91117.544,1.24519,1.24519,0,0,1,.33235.87474,1.605,1.605,0,0,1-.49111,1.2005,2.50018,2.50018,0,0,1-1.27491.64655l2.1728,2.80282a1.147,1.147,0,0,0,.23647.23977.58271.58271,0,0,0,.2447.08764l.45972.07441v.35387H400.181q-.382-.61017-.82346-1.24019c-.29435-.4167-.60687-.84167-.94583-1.27491-.33735-.43324-.62342-.78214-.86651-1.05a2.33832,2.33832,0,0,0,1.46672-.57545,1.62738,1.62738,0,0,0,.42-1.15916,1.04282,1.04282,0,0,0-.45634-.87144,1.93415,1.93415,0,0,0-1.179-.339h-.53577v4.60853" fill="#003594"/>
    <path d="M407.64691,29.769c-.00167-.11244-.00167-.26127,0-.44812a4.88506,4.88506,0,0,0-.01156-.52418c-.01988-.32907-.03638-.53907-.04633-.62671a.39982.39982,0,0,0-.07771-.21.32506.32506,0,0,0-.21-.10252l-.82679-.081v-.35883h3.17818v.35883l-.46134.06449c-.162.01984-.25136.07111-.27447.14882a3.16245,3.16245,0,0,0-.05127.62671l-.05127,1.52791a8.21705,8.21705,0,0,1-2.44565.31914,4.8419,4.8419,0,0,1-1.99254-.35883,2.98944,2.98944,0,0,1-1.21041-.91939,3.41528,3.41528,0,0,1-.58209-1.1757,4.62127,4.62127,0,0,1-.16537-1.18562,3.986,3.986,0,0,1,.19186-1.17239,3.66352,3.66352,0,0,1,.63493-1.18893,3.24335,3.24335,0,0,1,1.2303-.9227,4.46683,4.46683,0,0,1,1.89666-.36213,10.09809,10.09809,0,0,1,2.29684.23811v1.9165h-.42667l-.20337-.8764a.73548.73548,0,0,0-.34229-.53245,2.95746,2.95746,0,0,0-1.37578-.25465,2.345,2.345,0,0,0-1.44688.44812,2.6525,2.6525,0,0,0-.8764,1.16908,4.12317,4.12317,0,0,0-.28608,1.53452,4.02534,4.02534,0,0,0,.29269,1.54445,2.65778,2.65778,0,0,0,.89128,1.16247,2.41256,2.41256,0,0,0,1.47333.44481,2.7588,2.7588,0,0,0,1.27824-.20339" fill="#003594"/>
    <path d="M412.78624,27.00091v2.84251l2.31172-.10914a.46206.46206,0,0,0,.33235-.129,1.96156,1.96156,0,0,0,.23314-.45308l.31418-.76892.40017.08764-.33568,1.83713h-5.58745v-.3456l.66142-.07607a.34822.34822,0,0,0,.339-.23977,6.34939,6.34939,0,0,0,.09093-1.20216c.01983-.65812.02644-1.21373.02644-1.67177,0-.50434-.01983-1.19223-.05955-2.05706a3.85577,3.85577,0,0,0-.08927-.80529c-.03638-.0926-.13226-.14882-.28774-.16371l-.68125-.081V23.3068H415.68v1.91154h-.40017l-.13893-.77718a.83584.83584,0,0,0-.17526-.45639.65212.65212,0,0,0-.40678-.11244l-1.77263-.07441v2.73833l1.11448-.02811a.6435.6435,0,0,0,.47128-.13063,1.02162,1.02162,0,0,0,.15215-.47458l.086-.5523h.37868v2.78463h-.37868l-.07938-.51757a.957.957,0,0,0-.15215-.46135.68788.68788,0,0,0-.47789-.12567l-1.11448-.02976" fill="#003594"/>
    <path d="M421.19636,23.17782a4.70816,4.70816,0,0,1,1.57915.25135,3.34921,3.34921,0,0,1,1.19225.71435,3.10975,3.10975,0,0,1,.74575,1.14593,4.693,4.693,0,0,1,0,3.069,3.13839,3.13839,0,0,1-.74575,1.13932,3.35579,3.35579,0,0,1-1.19225.71765,4.79416,4.79416,0,0,1-1.57915.248,4.36618,4.36618,0,0,1-2.01243-.43324,2.97911,2.97911,0,0,1-1.308-1.25838,4.01074,4.01074,0,0,1-.44811-1.94792,4.20417,4.20417,0,0,1,.26125-1.51468,3.12232,3.12232,0,0,1,.74908-1.15585,3.22179,3.22179,0,0,1,1.19225-.72427,4.64969,4.64969,0,0,1,1.56593-.25135m0,6.79457a2.20687,2.20687,0,0,0,.98716-.22158,2.2629,2.2629,0,0,0,.77224-.63,3.05214,3.05214,0,0,0,.49772-.98884,4.56767,4.56767,0,0,0,.17531-1.31129,4.67791,4.67791,0,0,0-.17531-1.32783,2.9527,2.9527,0,0,0-.501-.98719,2.18534,2.18534,0,0,0-1.75612-.83671,2.16148,2.16148,0,0,0-1.26663.38033,2.4564,2.4564,0,0,0-.85162,1.09467,4.69709,4.69709,0,0,0,0,3.34355,2.47751,2.47751,0,0,0,.85162,1.10459A2.1615,2.1615,0,0,0,421.19636,29.97239Z" fill="#003594"/>
    <path d="M427.303,23.91036a.69647.69647,0,0,0-.3489-.15213l-.61676-.10252V23.3068h2.33151l4.16373,5.34769c-.01983-.31583-.03305-.72262-.03966-1.22365-.00495-.501-.01489-1.0368-.02811-1.60232-.01322-.56718-.02316-.93924-.0331-1.11948-.01817-.33568-.03472-.5556-.05122-.65978a.36994.36994,0,0,0-.08437-.22158.316.316,0,0,0-.21825-.081l-.75074-.08764V23.3068h2.84255v.34891l-.65153.08764a.38081.38081,0,0,0-.24636.10583.79562.79562,0,0,0-.0926.38859c-.01655.20339-.02649.52584-.02649.96238L433.4163,30.361h-.8003a69.79525,69.79525,0,0,0-4.69289-6.04715l.03971,4.09592c0,.50765.00328.8301.00823.97231a.62725.62725,0,0,0,.08765.32575.40393.40393,0,0,0,.30757.14221l.68459.10418v.35387H426.1786V29.9542l.68292-.08764a.40811.40811,0,0,0,.2282-.08433.38094.38094,0,0,0,.08432-.21993c.01322-.10252.0331-.32245.05127-.65813q.0595-1.09136.05788-2.07359,0-2.21994.01983-2.92022" fill="#003594"/>
    <path d="M440.05051,23.38783v1.85036h-.44483l-.13887-.90451c-.06449-.44151-.47789-.66474-1.24352-.66474a1.00992,1.00992,0,0,0-.802.339,1.23552,1.23552,0,0,0-.29935.84994.93723.93723,0,0,0,.10915.47127,1.19664,1.19664,0,0,0,.3109.339,1.718,1.718,0,0,0,.3704.22654c.1141.048.3489.15048.7077.30591.29435.11575.55232.22985.77552.33568a3.992,3.992,0,0,1,.60687.35883,1.69156,1.69156,0,0,1,.45144.52915,1.52234,1.52234,0,0,1,.18187.74907,2.06559,2.06559,0,0,1-.36874,1.17239,2.38776,2.38776,0,0,1-.9971.84664,3.00164,3.00164,0,0,1-1.37084.27119,9.45471,9.45471,0,0,1-1.23686-.11244,5.41549,5.41549,0,0,1-.91606-.21993V28.04762h.45139l.14554.84664a1.12544,1.12544,0,0,0,.49439.82679,2.13154,2.13154,0,0,0,1.136.25134,1.40669,1.40669,0,0,0,1.07981-.39025,1.38852,1.38852,0,0,0,.36707-.99546,1.05792,1.05792,0,0,0-.11576-.52253,1.17943,1.17943,0,0,0-.3489-.36875,2.91611,2.91611,0,0,0-.57215-.296q-.3373-.14138-.7292-.29434a5.4404,5.4404,0,0,1-.84334-.40678,1.74924,1.74924,0,0,1-.58371-.60356,1.936,1.936,0,0,1-.24308-1.02191,1.61877,1.61877,0,0,1,.69781-1.39728,2.8315,2.8315,0,0,1,1.69163-.49773,7.99518,7.99518,0,0,1,1.67674.21" fill="#003594"/>
    <line x1="116.28903" y1="16.3105" x2="441.06251" y2="16.3105" fill="none" stroke="#555759" stroke-width="0.3"/>
  </g>
</svg>
